<?xml version="1.0" standalone="no"?><!DOCTYPE svg PUBLIC "-//W3C//DTD SVG 1.1//EN" "http://www.w3.org/Graphics/SVG/1.1/DTD/svg11.dtd"><svg class="icon" width="200px" height="200.00px" viewBox="0 0 1024 1024" version="1.1" xmlns="http://www.w3.org/2000/svg"><path   d="M502.5792 75.8784A249.7536 249.7536 0 1 1 252.8256 325.632a250.0608 250.0608 0 0 1 249.7536-249.7536z m0 489.3184a239.5136 239.5136 0 1 0-239.5136-239.5136 239.8208 239.8208 0 0 0 239.5136 239.5136z m0-426.7008a187.136 187.136 0 1 1-132.3008 54.8352 185.9072 185.9072 0 0 1 132.3008-54.8352z m0 364.032a176.896 176.896 0 1 0-125.0816-51.8144 175.7696 175.7696 0 0 0 125.0816 51.8656zM502.5792 143.616a182.016 182.016 0 1 1-128.7168 53.2992 180.8384 180.8384 0 0 1 128.7168-53.2992m0-62.6176a244.6336 244.6336 0 1 0 244.6336 244.6336A244.6336 244.6336 0 0 0 502.5792 80.9984zM540.7744 536.2688a28.5184 28.5184 0 0 0-28.3648-28.5696h-0.4608a368.64 368.64 0 0 0-156.416 34.6624 397.8752 397.8752 0 0 0-126.9248 93.9008 438.3744 438.3744 0 0 0-84.9408 138.24 464.384 464.384 0 0 0-30.0544 138.24 28.5696 28.5696 0 0 0 28.5184 30.3104h5.5808a28.6208 28.6208 0 0 0 28.5184-26.88c12.4928-193.024 158.3104-345.8048 335.7696-345.8048h-0.0512A28.6208 28.6208 0 0 0 540.672 541.7984v-5.5296z m338.5856 133.6832h-144.8448a31.3344 31.3344 0 1 1 0-62.6176h144.8448a31.3344 31.3344 0 1 1 0 62.6176z m0 136.4992H637.6448a31.3344 31.3344 0 1 1 0-62.6176h241.7152a31.3344 31.3344 0 1 1 0 62.6176z m0 136.4992H637.6448a31.3344 31.3344 0 1 1 0-62.6176h241.7152a31.3344 31.3344 0 1 1 0 62.6176zM511.9488 502.5792h0.6656a33.6384 33.6384 0 0 1 33.0752 28.5696h0.4096v10.6496a33.792 33.792 0 0 1-33.8432 33.6896h-0.3072c-173.056 0-318.3104 149.8112-330.6496 341.0432a33.8432 33.8432 0 0 1-33.5872 31.6416h-5.5808a33.6896 33.6896 0 0 1-33.5872-35.84 470.2208 470.2208 0 0 1 30.4128-139.7248 443.4944 443.4944 0 0 1 85.9136-139.8272 402.944 402.944 0 0 1 128.3584-95.0784 373.76 373.76 0 0 1 158.72-35.1232z m23.9104 38.8096v-5.12a23.3984 23.3984 0 0 0-23.2448-23.4496h-0.6656a363.52 363.52 0 0 0-154.2656 34.2016 392.7552 392.7552 0 0 0-125.2864 92.7232 433.3056 433.3056 0 0 0-83.968 136.6016 459.9808 459.9808 0 0 0-29.7472 136.704 23.4496 23.4496 0 0 0 23.3984 24.8832h5.5808a23.552 23.552 0 0 0 23.3984-22.0672 393.5232 393.5232 0 0 1 107.52-248.5248 323.5328 323.5328 0 0 1 233.3696-102.144 23.552 23.552 0 0 0 23.6032-23.4496z m198.8608 60.7744h144.8448a36.4544 36.4544 0 1 1 0 72.8576h-145.0496a36.4544 36.4544 0 0 1 0-72.8576z m144.8448 62.6176a26.2144 26.2144 0 1 0 0-52.3776h-145.0496a26.2144 26.2144 0 0 0 0 52.3776z m-241.7152 73.8816h241.7152a36.4544 36.4544 0 1 1 0 72.8576h-241.92a36.4544 36.4544 0 1 1 0-72.8576z m241.7152 62.6176a26.2144 26.2144 0 1 0 0-52.3776h-241.92a26.2144 26.2144 0 1 0 0 52.3776z m-241.7152 73.8816h241.7152a36.4544 36.4544 0 1 1 0 72.8576h-241.92a36.4544 36.4544 0 1 1 0-72.8576z m241.7152 62.6176a26.2144 26.2144 0 1 0 0-52.3776h-241.92a26.2144 26.2144 0 1 0 0 52.3776z" /></svg>