<?xml version="1.0" standalone="no"?><!DOCTYPE svg PUBLIC "-//W3C//DTD SVG 1.1//EN" "http://www.w3.org/Graphics/SVG/1.1/DTD/svg11.dtd"><svg class="icon" width="200px" height="200.00px" viewBox="0 0 1024 1024" version="1.1" xmlns="http://www.w3.org/2000/svg"><path   d="M612.7616 322.9184a152.6784 152.6784 0 0 1 109.0048 45.312 155.136 155.136 0 0 1 0 218.368l-163.84 166.8608-0.4096 0.4096a60.6208 60.6208 0 0 1-85.5552-0.8192l-163.1744-166.656a155.0848 155.0848 0 0 1 0-218.2144l0.4096-0.4096a153.6 153.6 0 0 1 205.9776-10.24 152.4736 152.4736 0 0 1 97.5872-34.6112z m-97.28 378.88l158.976-161.9968a88.4736 88.4736 0 0 0 0-124.672 86.5792 86.5792 0 0 0-61.7984-25.6 86.4768 86.4768 0 0 0-61.44 25.6l-12.4416 12.4928a33.28 33.28 0 0 1-47.2064 0l-12.032-12.1344A87.04 87.04 0 0 0 356.352 415.232l-0.3072 0.3072a88.4224 88.4224 0 0 0 0 124.4672zM105.9328 319.4368a33.28 33.28 0 0 1-33.28-33.28V146.176a33.28 33.28 0 0 1 33.28-33.28h146.8928a33.28 33.28 0 1 1 0 66.56H139.0592v106.7008a33.28 33.28 0 0 1-33.1264 33.28zM252.672 911.0528H105.9328a33.28 33.28 0 0 1-33.28-33.28V737.792a33.28 33.28 0 1 1 66.56 0v106.7008h113.6128a33.28 33.28 0 1 1 0 66.56zM918.272 319.4368a33.28 33.28 0 0 1-33.28-33.28V179.456h-113.4592a33.28 33.28 0 1 1 0-66.56h146.8928a33.28 33.28 0 0 1 33.28 33.28v139.9808a33.28 33.28 0 0 1-33.4336 33.28zM918.272 911.0528h-146.7392a33.28 33.28 0 1 1 0-66.56h113.6128V737.792a33.28 33.28 0 1 1 66.56 0v139.9808a33.28 33.28 0 0 1-33.4336 33.28z" /></svg>