<?xml version="1.0" standalone="no"?><!DOCTYPE svg PUBLIC "-//W3C//DTD SVG 1.1//EN" "http://www.w3.org/Graphics/SVG/1.1/DTD/svg11.dtd"><svg class="icon" width="200px" height="200.00px" viewBox="0 0 1024 1024" version="1.1" xmlns="http://www.w3.org/2000/svg"><path   d="M204.8 156.16a35.84 35.84 0 0 0-35.84 35.84v512a35.84 35.84 0 0 0 35.84 35.84h614.4a35.84 35.84 0 0 0 35.84-35.84v-512a35.84 35.84 0 0 0-35.84-35.84H204.8m0-66.56h614.4a102.4 102.4 0 0 1 102.4 102.4v512a102.4 102.4 0 0 1-102.4 102.4H204.8a102.4 102.4 0 0 1-102.4-102.4v-512a102.4 102.4 0 0 1 102.4-102.4zM793.6 967.68h-563.2a33.28 33.28 0 0 1-33.28-33.28 33.28 33.28 0 0 1 33.28-33.28h563.2a33.28 33.28 0 0 1 33.28 33.28 33.28 33.28 0 0 1-33.28 33.28zM258.7648 545.28a33.28 33.28 0 0 1-17.8176-61.44l161.1264-101.7344a33.28 33.28 0 0 1 40.704 4.0448l87.04 82.8416 216.0128-153.6a33.28 33.28 0 1 1 38.5536 54.272l-238.08 169.472a33.28 33.28 0 0 1-42.1888-3.0208L415.8976 452.2496 276.6848 540.16a33.1264 33.1264 0 0 1-17.92 5.12z" /></svg>