<svg xmlns="http://www.w3.org/2000/svg" width="20" height="20" viewBox="0 0 20 20">
  <defs>
    <style>
      .cls-1, .cls-2 {
        fill: none;
      }

      .cls-1 {
        opacity: 0.204;
      }

      .cls-3, .cls-4 {
        stroke: none;
      }

      .cls-4 {
        fill: #333;
      }
    </style>
  </defs>
  <g id="icon_shezhi" transform="translate(-16 -94)">
    <rect id="矩形_14" data-name="矩形 14" class="cls-1" width="20" height="20" transform="translate(16 94)"/>
    <g id="路径_30" data-name="路径 30" class="cls-2" transform="translate(16.861 85.612)">
      <path class="cls-3" d="M19.07,17.082a1.274,1.274,0,0,0-.892-.937l-.308-.071a3.113,3.113,0,0,1-2.123-3.706l.091-.293a1.283,1.283,0,0,0-.361-1.243,8.767,8.767,0,0,0-1.119-.725A8.83,8.83,0,0,0,13.173,9.5a1.27,1.27,0,0,0-1.256.306l-.217.234a3.1,3.1,0,0,1-4.264-.006l-.21-.227A1.269,1.269,0,0,0,5.971,9.5a8.786,8.786,0,0,0-1.186.607,8.755,8.755,0,0,0-1.116.724,1.276,1.276,0,0,0-.361,1.243l.09.3a3.119,3.119,0,0,1-.33,2.28,3.1,3.1,0,0,1-1.8,1.425l-.3.069a1.275,1.275,0,0,0-.891.936A8.725,8.725,0,0,0,0,18.412a8.682,8.682,0,0,0,.068,1.331,1.28,1.28,0,0,0,.891.939l.294.065a3.111,3.111,0,0,1,1.81,1.431A3.107,3.107,0,0,1,3.4,24.461l-.089.292A1.275,1.275,0,0,0,3.67,26a8.6,8.6,0,0,0,1.118.725,8.613,8.613,0,0,0,1.184.607,1.274,1.274,0,0,0,1.255-.3l.207-.223a3.1,3.1,0,0,1,4.278,0h0l.206.223a1.272,1.272,0,0,0,1.254.3,9.1,9.1,0,0,0,1.187-.607A8.668,8.668,0,0,0,15.474,26a1.281,1.281,0,0,0,.362-1.243l-.091-.3a3.113,3.113,0,0,1,2.14-3.7l.292-.069h0a1.271,1.271,0,0,0,.892-.937,8.727,8.727,0,0,0,.068-1.333A8.807,8.807,0,0,0,19.07,17.082ZM9.571,21.5a3.082,3.082,0,1,1,3.073-3.081A3.079,3.079,0,0,1,9.571,21.5Z"/>
      <path class="cls-4" d="M 12.80765724182129 10.7565975189209 L 12.62327098846436 10.95483016967773 L 12.59293174743652 10.9835205078125 C 11.77255058288574 11.7591495513916 10.69940090179443 12.18630981445312 9.571161270141602 12.18630981445312 C 8.437861442565918 12.18630981445312 7.361330986022949 11.75622940063477 6.539891242980957 10.97529029846191 L 6.509640693664551 10.94652938842773 L 6.335114479064941 10.75785636901855 C 6.197445869445801 10.82040596008301 5.90471076965332 10.96244049072266 5.436640739440918 11.23258972167969 C 4.966854095458984 11.50480079650879 4.697545051574707 11.68810272216797 4.575592994689941 11.77569770812988 L 4.653210639953613 12.02923965454102 L 4.662800788879395 12.0695686340332 C 4.924261093139648 13.16965866088867 4.758161544799805 14.31584930419922 4.193521499633789 15.29974937438965 C 3.627330780029297 16.28080940246582 2.718601226806641 16.99859046936035 1.634721755981445 17.32087898254395 L 1.594650268554688 17.33279037475586 L 1.342781066894531 17.39037132263184 C 1.328023910522461 17.53915786743164 1.304000854492188 17.86540222167969 1.304000854492188 18.41242027282715 C 1.304000854492188 18.9620532989502 1.328252792358398 19.28802490234375 1.342950820922852 19.43507766723633 L 1.584220886230469 19.48871040344238 L 1.628320693969727 19.50185012817383 C 2.713981628417969 19.82523918151855 3.62484073638916 20.54476928710938 4.193931579589844 21.52935981750488 C 4.759931564331055 22.51150894165039 4.925801277160645 23.66022872924805 4.6610107421875 24.76391983032227 L 4.64000129699707 24.84096908569336 L 4.575725555419922 25.05105018615723 C 4.69611644744873 25.1378059387207 4.965785026550293 25.32181930541992 5.43972110748291 25.59576988220215 C 5.908430099487305 25.86740303039551 6.200314521789551 26.00917434692383 6.33659553527832 26.07110595703125 L 6.536121368408203 25.85974884033203 C 7.35642147064209 25.07650947570801 8.434281349182129 24.64516067504883 9.571161270141602 24.64516067504883 C 10.70292091369629 24.64516067504883 11.78043174743652 25.07513999938965 12.60521125793457 25.85588073730469 L 12.63751125335693 25.88645935058594 L 12.80687522888184 26.07029724121094 C 12.94648361206055 26.00654983520508 13.23955726623535 25.86391448974609 13.7064208984375 25.59561920166016 C 14.17849731445312 25.32217407226562 14.44800567626953 25.13815689086914 14.56875228881836 25.05112838745117 L 14.48936080932617 24.78847885131836 L 14.48005104064941 24.74885940551758 C 14.22189140319824 23.6508903503418 14.38818168640137 22.50835037231445 14.94828128814697 21.53171920776367 L 14.95082092285156 21.52732086181641 C 15.51828098297119 20.54673957824707 16.42773056030273 19.82766914367676 17.51164054870605 19.50255966186523 L 17.58660125732422 19.48249053955078 L 17.80075836181641 19.43196105957031 C 17.81548881530762 19.28350830078125 17.83948135375977 18.95796394348145 17.83948135375977 18.41268920898438 C 17.83816146850586 17.86584663391113 17.81353187561035 17.53989219665527 17.79859352111816 17.3917179107666 L 17.53411102294922 17.33055877685547 L 17.49302101135254 17.31814956665039 C 16.41722106933594 16.99328994750977 15.51421165466309 16.27685928344727 14.95064163208008 15.30135917663574 C 14.38223075866699 14.31853866577148 14.21567153930664 13.16869926452637 14.4816312789917 12.06366920471191 L 14.4916410446167 12.02207946777344 L 14.56851577758789 11.77529525756836 C 14.44560050964355 11.68715476989746 14.17558288574219 11.50369834899902 13.70638084411621 11.23231887817383 C 13.2385425567627 10.96200561523438 12.94578456878662 10.81955718994141 12.80765724182129 10.7565975189209 M 9.570590972900391 22.79644012451172 C 7.158421516418457 22.79644012451172 5.195971488952637 20.83003997802734 5.195971488952637 18.41300010681152 C 5.195971488952637 15.99796867370605 7.158421516418457 14.03319931030273 9.570590972900391 14.03319931030273 C 11.9818115234375 14.03319931030273 13.9434814453125 15.99905014038086 13.9434814453125 18.4153995513916 C 13.9434814453125 20.83111000061035 11.9818115234375 22.79644012451172 9.570590972900391 22.79644012451172 M 12.82063484191895 9.441755294799805 C 12.94415378570557 9.44175910949707 13.06438446044922 9.46025276184082 13.17255115509033 9.499349594116211 C 13.17255115509033 9.499349594116211 13.5311107635498 9.629650115966797 14.35676097869873 10.10671043395996 C 15.18260097503662 10.58434867858887 15.47583103179932 10.83189964294434 15.47583103179932 10.83189964294434 C 15.79927062988281 11.1076602935791 15.96162128448486 11.66819953918457 15.83670139312744 12.07522010803223 L 15.74554061889648 12.36787033081055 C 15.56564140319824 13.11532020568848 15.66024112701416 13.93165969848633 16.07599067687988 14.65052032470703 C 16.48829078674316 15.36418914794922 17.13768005371094 15.85286903381348 17.86882019042969 16.07365036010742 L 18.17711067199707 16.14493942260742 C 18.59295082092285 16.24011993408203 18.99479103088379 16.66230010986328 19.06953048706055 17.08160018920898 C 19.06953048706055 17.08160018920898 19.13718032836914 17.45761871337891 19.13948059082031 18.40954971313477 C 19.13948059082031 19.36606979370117 19.07184028625488 19.74218940734863 19.07184028625488 19.74218940734863 C 18.99709129333496 20.16264915466309 18.59525108337402 20.58415985107422 18.17950057983398 20.67885971069336 L 18.17711067199707 20.67885971069336 L 17.8851318359375 20.74774932861328 C 17.14939117431641 20.96842956542969 16.49299049377441 21.4578800201416 16.07599067687988 22.17845916748047 C 15.666090965271 22.8931884765625 15.57034111022949 23.70616912841797 15.74554061889648 24.45132064819336 L 15.83660125732422 24.75259971618652 C 15.96047115325928 25.16144943237305 15.79927062988281 25.71968078613281 15.4744815826416 25.9952507019043 C 15.4744815826416 25.9952507019043 15.18260097503662 26.24290084838867 14.35801124572754 26.72052955627441 C 13.52871131896973 27.19712066650391 13.17130088806152 27.32798957824707 13.17130088806152 27.32798957824707 C 12.76956081390381 27.47278022766113 12.20662021636963 27.33374786376953 11.91704177856445 27.02306938171387 L 11.71152114868164 26.79998016357422 C 11.15261077880859 26.27090835571289 10.39931106567383 25.94515991210938 9.571161270141602 25.94515991210938 C 8.742541313171387 25.94515991210938 7.990390777587891 26.26861000061035 7.433880805969238 26.79998016357422 L 7.226631164550781 27.02306938171387 C 6.93696117401123 27.33374786376953 6.372773170471191 27.4727783203125 5.971601486206055 27.32798957824707 C 5.971601486206055 27.32798957824707 5.614191055297852 27.19942092895508 4.787871360778809 26.72052955627441 C 3.961550712585449 26.24290084838867 3.670150756835938 25.9952507019043 3.670150756835938 25.9952507019043 C 3.344301223754883 25.71968078613281 3.181381225585938 25.15903854370117 3.307551383972168 24.75259971618652 L 3.396881103515625 24.46062850952148 C 3.576210975646973 23.71316909790039 3.481511116027832 22.8967399597168 3.067581176757812 22.17845916748047 C 2.651741027832031 21.45901870727539 1.994190216064453 20.9672794342041 1.257200241088867 20.74774932861328 L 0.9628314971923828 20.68231010437012 C 0.5489006042480469 20.58539962768555 0.1470603942871094 20.16379928588867 0.07174110412597656 19.74334907531738 C 0.07174110412597656 19.74334907531738 0.004001617431640625 19.36837005615234 0.004001617431640625 18.41242027282715 C 0.004001617431640625 17.45648002624512 0.07174110412597656 17.07977867126465 0.07174110412597656 17.07977867126465 C 0.1464805603027344 16.6611499786377 0.5489006042480469 16.23838996887207 0.9628314971923828 16.14369010925293 L 1.264200210571289 16.07480049133301 C 1.998321533203125 15.85651016235352 2.654041290283203 15.36648941040039 3.067581176757812 14.64994049072266 C 3.479781150817871 13.93165969848633 3.575541496276855 13.11705017089844 3.398031234741211 12.37016868591309 L 3.307551383972168 12.07464027404785 C 3.181381225585938 11.6658992767334 3.344301223754883 11.10756874084473 3.669001579284668 10.83189964294434 C 3.669001579284668 10.83189964294434 3.96040153503418 10.58549880981445 4.784900665283203 10.10776901245117 C 5.612461090087891 9.630128860473633 5.971031188964844 9.500499725341797 5.971031188964844 9.500499725341797 C 6.371622085571289 9.355621337890625 6.937530517578125 9.494070053100586 7.225960731506348 9.806480407714844 L 7.435610771179199 10.03311920166016 C 7.992120742797852 10.56218910217285 8.743791580200195 10.88630867004395 9.571161270141602 10.88630867004395 C 10.39461135864258 10.88630867004395 11.14388084411621 10.56448936462402 11.69981098175049 10.03887939453125 L 11.91704177856445 9.805330276489258 C 12.1284294128418 9.576852798461914 12.48670959472656 9.441740036010742 12.82063484191895 9.441755294799805 Z M 9.570590972900391 21.49644088745117 C 11.26823043823242 21.49644088745117 12.64348125457764 20.11821937561035 12.64348125457764 18.4153995513916 C 12.64348125457764 16.71315002441406 11.26823043823242 15.33320045471191 9.570590972900391 15.33320045471191 C 7.872951507568359 15.33320045471191 6.495970726013184 16.71247863769531 6.495970726013184 18.41300010681152 C 6.495970726013184 20.11591911315918 7.872951507568359 21.49644088745117 9.570590972900391 21.49644088745117 Z"/>
    </g>
  </g>
</svg>
