<?xml version="1.0" standalone="no"?><!DOCTYPE svg PUBLIC "-//W3C//DTD SVG 1.1//EN" "http://www.w3.org/Graphics/SVG/1.1/DTD/svg11.dtd"><svg class="icon" width="200px" height="200.00px" viewBox="0 0 1024 1024" version="1.1" xmlns="http://www.w3.org/2000/svg"><path   d="M512 56.9344A455.0656 455.0656 0 1 1 56.9344 512 455.0656 455.0656 0 0 1 512 56.9344z m348.4672 272.896L644.096 493.2096a133.5808 133.5808 0 0 1-103.9872 149.2992v261.376a393.2672 393.2672 0 0 0 320.3072-574.3104z m-697.1904 0.512a393.2672 393.2672 0 0 0 314.88 573.44v-262.7072a133.632 133.632 0 0 1-98.3552-147.2512zM512 440.5248a71.68 71.68 0 1 0 71.68 71.68 71.68 71.68 0 0 0-71.68-71.68z m0-321.6384a392.5504 392.5504 0 0 0-315.648 158.72l207.2576 156.5184a133.4784 133.4784 0 0 1 216.4224-0.4608l207.2576-156.5184A392.5504 392.5504 0 0 0 512 118.8864zM512 54.3744A457.6256 457.6256 0 1 1 54.4768 512 458.1376 458.1376 0 0 1 512 54.3744z m0 910.1312A452.5056 452.5056 0 1 0 59.5968 512 453.0176 453.0176 0 0 0 512 964.5056z m0-848.1792a391.3728 391.3728 0 0 1 180.3776 43.4176 399.36 399.36 0 0 1 137.0112 115.968l1.536 2.048L619.52 437.3504l-1.536-2.0992a130.9184 130.9184 0 0 0-212.2752 0.4608l-1.536 2.1504-211.456-159.6928 1.536-2.048a399.36 399.36 0 0 1 137.1136-116.2752A391.3728 391.3728 0 0 1 512 116.3264z m311.7568 160.3584a394.24 394.24 0 0 0-133.7344-112.64 391.3216 391.3216 0 0 0-356.3008 0 394.24 394.24 0 0 0-133.7856 112.64l203.1616 153.6a135.9872 135.9872 0 0 1 217.4976-0.4608z m37.5808 49.2544l1.3824 2.6624a395.776 395.776 0 0 1-322.56 578.048h-2.7648v-266.24l2.048-0.4096a131.0208 131.0208 0 0 0 101.9904-146.432v-1.4848z m-318.6688 575.4368a390.7584 390.7584 0 0 0 316.8768-567.7056l-212.6848 160.6144a136.1408 136.1408 0 0 1-104.1408 150.1696zM162.4064 326.4512l220.16 166.1952v1.4848a132.4032 132.4032 0 0 0-1.1776 17.8176 130.8672 130.8672 0 0 0 97.6896 126.6176l1.8944 0.512v267.3664H478.208A395.8272 395.8272 0 0 1 161.28 329.3696z m214.6304 168.4992l-212.8896-160.768a390.656 390.656 0 0 0 311.4496 566.6816V643.072A135.9872 135.9872 0 0 1 376.0128 512a137.8816 137.8816 0 0 1 1.024-17.0496zM512 437.9648A74.0352 74.0352 0 1 1 437.9648 512 74.1376 74.1376 0 0 1 512 437.9648z m0 142.9504A68.9152 68.9152 0 1 0 443.0848 512 69.0176 69.0176 0 0 0 512 580.9152z" /></svg>