<svg xmlns="http://www.w3.org/2000/svg" width="20" height="20" viewBox="0 0 20 20">
  <defs>
    <style>
      .cls-1 {
        fill: none;
        opacity: 0.204;
      }

      .cls-2 {
        fill: #333;
        stroke: #333;
        stroke-width: 0.1px;
      }
    </style>
  </defs>
  <g id="icon_jiashic" transform="translate(-16 -94)">
    <rect id="矩形_14" data-name="矩形 14" class="cls-1" width="20" height="20" transform="translate(16 94)"/>
    <path id="路径_31" data-name="路径 31" class="cls-2" d="M23.536,14.258a8.888,8.888,0,1,1-8.888,8.888A8.888,8.888,0,0,1,23.536,14.258Zm6.806,5.33-4.226,3.191a2.609,2.609,0,0,1-2.031,2.916V30.8a7.681,7.681,0,0,0,6.256-11.217Zm-13.617.01a7.681,7.681,0,0,0,6.15,11.2V25.667a2.61,2.61,0,0,1-1.921-2.876Zm6.811,2.152a1.4,1.4,0,1,0,1.4,1.4A1.4,1.4,0,0,0,23.536,21.75Zm0-6.282a7.667,7.667,0,0,0-6.165,3.1l4.048,3.057a2.607,2.607,0,0,1,4.227-.009l4.048-3.057A7.667,7.667,0,0,0,23.536,15.468Z" transform="translate(2.464 80.854)"/>
  </g>
</svg>
