<?xml version="1.0" standalone="no"?><!DOCTYPE svg PUBLIC "-//W3C//DTD SVG 1.1//EN" "http://www.w3.org/Graphics/SVG/1.1/DTD/svg11.dtd"><svg class="icon" width="200px" height="200.00px" viewBox="0 0 1024 1024" version="1.1" xmlns="http://www.w3.org/2000/svg"><path   d="M142.08 792.0128c0-38.8608 28.2112-74.5472 81.664-103.168a541.952 541.952 0 0 1 170.9056-51.7632v-9.5744c-75.7248-56.6272-112.64-153.6-112.64-296.96A207.5136 207.5136 0 0 1 508.2112 104.96h7.424a207.616 207.616 0 0 1 226.2528 225.5872c0 52.7872 0 213.248-111.7696 297.216v9.5744a538.2656 538.2656 0 0 1 170.3424 51.7632c53.2992 28.6208 81.5104 64.256 81.5104 103.0144 0 115.712-124.416 174.08-369.8688 174.08s-370.0224-58.5216-370.0224-174.1824z m204.1344-464.6912c0 128.6144 32.0512 211.3024 97.8944 252.8768a35.4304 35.4304 0 0 1 16.128 29.8496v59.648a34.3552 34.3552 0 0 1-30.0544 34.7648c-128.8704 13.4144-225.792 64.7168-225.792 91.3408 0 48.896 53.3504 107.0592 307.6096 107.0592s307.5584-58.1632 307.5584-107.0592c0-26.6752-96.9216-77.9776-225.6384-91.3408a34.2528 34.2528 0 0 1-30.1056-35.84l1.1776-59.5456a35.072 35.072 0 0 1 16.0768-29.0304c65.8944-41.6768 96.6656-122.0608 96.6656-252.928 0-72.5504-28.1088-158.976-161.9456-158.976h-7.5776c-73.9328 0.1536-161.9456 27.6992-161.9456 159.1296z m627.3536 395.8272a30.72 30.72 0 0 1-21.5552-9.5744 30.208 30.208 0 0 1-8.3968-21.8624 207.5136 207.5136 0 0 0-148.48-72.704 30.72 30.72 0 0 1-26.7776-31.232v-54.4768a31.6928 31.6928 0 0 1 13.824-26.3168c62.1568-41.7792 68.864-135.7312 68.864-174.08a92.4672 92.4672 0 0 0-101.4784-104.448 30.0032 30.0032 0 0 1-21.504-9.5232 30.1568 30.1568 0 0 1-8.448-21.9136 30.3104 30.3104 0 0 1 8.3968-21.6576 30.3616 30.3616 0 0 1 21.4016-9.5744 152.5248 152.5248 0 0 1 161.536 167.0656c0 44.7488-8.0896 155.1872-82.688 216.6272v11.5712c68.608 14.2336 175.2064 61.7472 175.2064 130.816a30.208 30.208 0 0 1-8.3968 21.8112 30.72 30.72 0 0 1-21.4016 9.6256z m0.0512-2.56z m-922.9824 2.56a30.72 30.72 0 0 1-21.6576-9.5232 30.72 30.72 0 0 1-8.3968-21.9648 109.568 109.568 0 0 1 61.44-85.2992 354.9184 354.9184 0 0 1 113.92-45.4656v-11.5712c-74.6496-61.44-82.688-171.8784-82.688-216.6272a152.4736 152.4736 0 0 1 161.3824-167.0656 30.976 30.976 0 0 1 21.6576 9.5232 31.1296 31.1296 0 0 1 8.3968 22.0672 29.696 29.696 0 0 1-8.448 21.5552 29.7984 29.7984 0 0 1-21.3504 9.5232 92.5696 92.5696 0 0 0-101.632 104.448c0 38.4 6.7072 132.4032 68.864 174.08a32.1024 32.1024 0 0 1 13.824 26.3168v54.5792a30.72 30.72 0 0 1-26.7776 31.1296 207.1552 207.1552 0 0 0-148.48 72.8064 30.1568 30.1568 0 0 1-8.3968 21.8112 30.72 30.72 0 0 1-21.3504 9.6256z m0-2.56z" /></svg>