<?xml version="1.0" standalone="no"?><!DOCTYPE svg PUBLIC "-//W3C//DTD SVG 1.1//EN" "http://www.w3.org/Graphics/SVG/1.1/DTD/svg11.dtd"><svg t="1636616130753" class="icon" viewBox="0 0 1024 1024" version="1.1" xmlns="http://www.w3.org/2000/svg" p-id="4405" xmlns:xlink="http://www.w3.org/1999/xlink" width="200" height="200"><defs><style type="text/css"></style></defs><path d="M481.28 984.32v-31.7952a435.2 435.2 0 0 1-403.5072-404.48H46.08a33.28 33.28 0 0 1-33.28-33.2288 33.28 33.28 0 0 1 33.28-33.28h32.3072a435.2 435.2 0 0 1 402.944-397.0048V39.936a33.28 33.28 0 0 1 33.28-33.2288 33.3312 33.3312 0 0 1 33.3312 33.2288v45.0048a435.2 435.2 0 0 1 397.7728 396.6464h32.256a33.28 33.28 0 0 1 33.28 33.28 33.28 33.28 0 0 1-33.28 33.2288h-31.6928a435.2 435.2 0 0 1-398.336 404.48v32.2048a33.3312 33.3312 0 0 1-33.3312 33.3312 33.28 33.28 0 0 1-33.3312-33.792z m0-98.5088v-87.4496A281.6 281.6 0 0 1 231.936 547.84H144.5376A369.2544 369.2544 0 0 0 481.28 885.76z m66.56-0.4608a369.3056 369.3056 0 0 0 331.5712-337.5104h-87.3984a281.6 281.6 0 0 1-244.1728 249.9072z m-66.56-154.112v-51.5072a33.28 33.28 0 0 1 33.28-33.3312 33.3312 33.3312 0 0 1 33.3312 33.3312v50.7392a215.552 215.552 0 0 0 177.152-182.5792H673.28a33.28 33.28 0 0 1-33.28-33.2288 33.28 33.28 0 0 1 33.28-33.28h50.5856a215.6032 215.6032 0 0 0-175.9744-174.9504v37.9904a33.3312 33.3312 0 0 1-33.3312 33.28 33.28 33.28 0 0 1-33.28-33.28V305.664a215.552 215.552 0 0 0-181.0432 175.7696h50.4832a33.28 33.28 0 0 1 33.2288 33.28 33.28 33.28 0 0 1-33.2288 33.2288H299.008a215.5008 215.5008 0 0 0 182.272 183.296z m397.4656-249.9072A369.3568 369.3568 0 0 0 547.84 151.5008v87.552a281.6 281.6 0 0 1 243.2512 242.2784z m-645.9392 0a281.6 281.6 0 0 1 248.4224-242.8928V151.04a369.3056 369.3056 0 0 0-336.0768 330.2912z" p-id="4406"></path></svg>