<?xml version="1.0" standalone="no"?><!DOCTYPE svg PUBLIC "-//W3C//DTD SVG 1.1//EN" "http://www.w3.org/Graphics/SVG/1.1/DTD/svg11.dtd"><svg class="icon" width="200px" height="200.00px" viewBox="0 0 1024 1024" version="1.1" xmlns="http://www.w3.org/2000/svg"><path   d="M145.92 895.9488v-337.1008A128 128 0 0 1 51.2 435.2a128 128 0 0 1 94.72-123.5456V128.0512a33.3312 33.3312 0 0 1 33.2288-33.3312 33.3312 33.3312 0 0 1 33.3312 33.3312v183.552A128 128 0 0 1 307.2 435.2a128 128 0 0 1-94.72 123.648v337.1008a33.3312 33.3312 0 0 1-33.3312 33.3312 33.3312 33.3312 0 0 1-33.2288-33.3312z m-28.16-460.8a61.44 61.44 0 0 0 61.44 61.44 61.44 61.44 0 0 0 61.44-61.44 61.44 61.44 0 0 0-61.44-61.44A61.44 61.44 0 0 0 117.76 435.2zM478.72 895.9488v-132.3008A128 128 0 0 1 384 640a128 128 0 0 1 94.72-123.5456V128.1024a33.3312 33.3312 0 0 1 33.2288-33.3312 33.3312 33.3312 0 0 1 33.3312 33.3312v388.352A128 128 0 0 1 640 640a128 128 0 0 1-94.72 123.6992V896a33.3312 33.3312 0 0 1-33.3312 33.3312 33.3312 33.3312 0 0 1-33.2288-33.3824z m-28.16-256a61.44 61.44 0 0 0 61.44 61.44 61.44 61.44 0 0 0 61.44-61.44 61.44 61.44 0 0 0-61.44-61.44A61.44 61.44 0 0 0 450.56 640zM768 896v-335.36a128 128 0 0 1 0-250.88V128.0512a33.28 33.28 0 1 1 66.56 0V313.856a128 128 0 0 1 0 242.6368v339.456a33.28 33.28 0 0 1-66.56 0z m-35.84-460.8a61.44 61.44 0 1 0 61.44-61.44 61.44 61.44 0 0 0-61.44 61.44z" /></svg>