<?xml version="1.0" standalone="no"?><!DOCTYPE svg PUBLIC "-//W3C//DTD SVG 1.1//EN" "http://www.w3.org/Graphics/SVG/1.1/DTD/svg11.dtd"><svg class="icon" width="200px" height="200.00px" viewBox="0 0 1024 1024" version="1.1" xmlns="http://www.w3.org/2000/svg"><path   d="M699.8528 121.2928l-9.4208 10.24-1.536 1.4848a225.28 225.28 0 0 1-309.9136-0.4096l-1.536-1.4848-8.96-9.6768c-7.0656 3.2256-22.016 10.24-46.08 24.32s-37.8368 23.3472-44.0832 27.8016l3.9936 13.0048 0.512 2.048a225.9968 225.9968 0 0 1-24.0128 165.376 224.6144 224.6144 0 0 1-131.0208 103.4752l-2.048 0.6144-12.9024 2.9696c-0.768 7.6288-1.9968 24.32-1.9968 52.3264s1.2288 44.8512 1.9968 52.3776l12.3392 2.7648 2.2528 0.6656a225.536 225.536 0 0 1 131.3792 103.8336 225.28 225.28 0 0 1 23.9104 165.632l-1.0752 3.9424-3.2768 10.752c6.144 4.4544 19.968 13.8752 44.2368 27.904s38.9632 21.1456 46.08 24.32l10.24-10.8032a225.28 225.28 0 0 1 310.7328 0l1.6384 1.5872 8.6528 9.4208c7.168-3.2768 22.1696-10.5472 46.08-24.32s37.9904-23.3984 44.1344-27.8528l-4.0448-13.4656-0.4608-2.048a225.9968 225.9968 0 0 1 23.9616-164.7104 225.9968 225.9968 0 0 1 131.072-104.448l3.84-1.024 10.9568-2.6112c0.768-7.5776 1.9968-24.2688 1.9968-52.1728s-1.3312-44.6976-2.0992-52.2752l-13.5168-3.1232-2.0992-0.6144a225.9456 225.9456 0 0 1-154.1632-269.0048l0.512-2.1504 3.9424-12.6464c-6.2976-4.5056-20.1216-13.9264-44.1344-27.8016s-38.9632-21.1456-46.08-24.3712m-165.7344 616.7552a224.3584 224.3584 0 1 1 223.8976-224.3072 224.4608 224.4608 0 0 1-223.8976 224.3072m166.4-683.776a53.248 53.248 0 0 1 18.0224 2.9696 452.096 452.096 0 0 1 60.6208 31.0784 448.9216 448.9216 0 0 1 57.2928 37.12 65.6896 65.6896 0 0 1 18.4832 63.6416l-4.6592 15.0016a159.3856 159.3856 0 0 0 108.6976 189.7472l15.7696 3.6352a65.2288 65.2288 0 0 1 45.6704 47.9744 450.8672 450.8672 0 0 1 3.584 67.9936 446.8736 446.8736 0 0 1-3.4816 68.2496 65.0752 65.0752 0 0 1-45.6704 47.9744l-14.9504 3.5328a159.3856 159.3856 0 0 0-109.568 189.44l4.6592 15.36a65.5872 65.5872 0 0 1-18.6368 63.8976 443.7504 443.7504 0 0 1-57.1392 37.12 465.92 465.92 0 0 1-60.7744 31.0784 65.1264 65.1264 0 0 1-64.2048-15.36l-10.5472-11.4176a158.72 158.72 0 0 0-219.0336 0l-10.5984 11.4176a65.2288 65.2288 0 0 1-64.256 15.36 441.0368 441.0368 0 0 1-60.6208-31.0784 440.32 440.32 0 0 1-57.1904-37.12 65.28 65.28 0 0 1-18.5856-63.6416l4.5568-14.9504a159.0784 159.0784 0 0 0-16.8448-116.8384 159.2832 159.2832 0 0 0-92.672-73.2672l-15.0528-3.328a65.536 65.536 0 0 1-45.6192-48.0768 444.5184 444.5184 0 0 1-3.6864-68.4032 446.72 446.72 0 0 1 3.6864-68.1984 65.28 65.28 0 0 1 45.6192-47.9232l15.36-3.5328a158.72 158.72 0 0 0 92.16-72.96 159.6928 159.6928 0 0 0 16.896-116.736l-4.608-15.36a65.3312 65.3312 0 0 1 18.4832-63.6416 448.2048 448.2048 0 0 1 57.1392-37.0688 449.8432 449.8432 0 0 1 60.9792-30.8736 64.9728 64.9728 0 0 1 64.256 15.6672l10.752 11.6224a158.72 158.72 0 0 0 218.3168 0.3072l11.1104-11.9808a65.28 65.28 0 0 1 46.2848-18.5856z m-166.4 617.216a157.7984 157.7984 0 1 0-157.2352-158.0544 157.4912 157.4912 0 0 0 157.2352 158.0544z" /></svg>