<?xml version="1.0" standalone="no"?><!DOCTYPE svg PUBLIC "-//W3C//DTD SVG 1.1//EN" "http://www.w3.org/Graphics/SVG/1.1/DTD/svg11.dtd"><svg class="icon" width="200px" height="200.00px" viewBox="0 0 1024 1024" version="1.1" xmlns="http://www.w3.org/2000/svg"><path   d="M193.962667 836.992a27.733333 27.733333 0 0 1-27.690667-27.733333 27.690667 27.690667 0 0 1 27.690667-27.690667h663.936a27.733333 27.733333 0 0 1 27.733333 27.690667 27.733333 27.733333 0 0 1-27.733333 27.733333z m221.312-193.664a27.733333 27.733333 0 0 1-27.733334-27.690667 27.733333 27.733333 0 0 1 27.733334-27.733333h442.624a27.733333 27.733333 0 0 1 27.733333 27.733333 27.733333 27.733333 0 0 1-27.733333 27.690667z m-247.466667-32.469333a6.357333 6.357333 0 0 1-1.536-4.266667V413.098667a6.272 6.272 0 0 1 6.357333-6.272 6.485333 6.485333 0 0 1 4.266667 1.536l110.592 96.725333a6.357333 6.357333 0 0 1 0.554667 8.96l-0.554667 0.554667-110.592 96.768a6.357333 6.357333 0 0 1-4.266667 1.536 6.357333 6.357333 0 0 1-4.992-2.005334z m247.466667-161.152a27.733333 27.733333 0 0 1-27.733334-27.733334 27.733333 27.733333 0 0 1 27.733334-27.733333h442.624a27.733333 27.733333 0 0 1 27.733333 27.733333 27.733333 27.733333 0 0 1-27.733333 27.733334zM193.962667 283.733333A27.733333 27.733333 0 0 1 166.272 256a27.690667 27.690667 0 0 1 27.690667-27.690667h663.936a27.733333 27.733333 0 0 1 27.733333 27.690667 27.733333 27.733333 0 0 1-27.733333 27.733333z" /></svg>