<?xml version="1.0" standalone="no"?><!DOCTYPE svg PUBLIC "-//W3C//DTD SVG 1.1//EN" "http://www.w3.org/Graphics/SVG/1.1/DTD/svg11.dtd"><svg class="icon" width="200px" height="200.00px" viewBox="0 0 1024 1024" version="1.1" xmlns="http://www.w3.org/2000/svg"><path   d="M114.7904 859.6992v-6.5024l0.8192-675.328a117.76 117.76 0 0 1 111.1552-117.4016h6.5024l563.2-3.3792a118.016 118.016 0 0 1 112.64 110.7456l0.256 6.656-0.9728 551.6288a117.76 117.76 0 0 1-111.1552 117.2992h-6.5024l-602.4704 3.1744v6.2464a58.7264 58.7264 0 0 0 45.3632 51.2h3.9424l642.1504-3.2256a12.032 12.032 0 0 1 11.9808 12.0832v24.576a36.4544 36.4544 0 0 1-36.5568 36.4032h-64.256l-553.5744 3.2256a130.9184 130.9184 0 0 1-122.5216-117.4016zM233.4208 133.5296a44.1856 44.1856 0 0 0-44.4416 40.0896v4.352l-0.9728 595.5584 602.3168-3.0208a44.288 44.288 0 0 0 44.1856-40.2432l0.256-4.352 0.9728-551.3728a44.0832 44.0832 0 0 0-40.0896-44.1344h-5.12z m178.432 478.9248V294.4h117.76a145.2032 145.2032 0 0 1 114.5856 44.4416 168.0384 168.0384 0 0 1 35.84 114.5856 163.5328 163.5328 0 0 1-38.4512 114.688 149.9136 149.9136 0 0 1-115.2512 44.288z m59.136-54.6304h49.4592a102.4 102.4 0 0 0 76.8-26.2144 112.64 112.64 0 0 0 24.064-78.1312 116.736 116.736 0 0 0-22.1696-78.6944 95.232 95.232 0 0 0-74.752-25.6H471.0912z" /></svg>