<svg xmlns="http://www.w3.org/2000/svg" width="20" height="20" viewBox="0 0 20 20">
  <defs>
    <style>
      .cls-1, .cls-3 {
        fill: none;
      }

      .cls-2 {
        fill: #333;
      }

      .cls-4, .cls-5 {
        stroke: none;
      }

      .cls-5 {
        fill: #333;
      }
    </style>
  </defs>
  <g id="icon_lidang" transform="translate(-36 -94)">
    <rect id="矩形_14" data-name="矩形 14" class="cls-1" width="20" height="20" transform="translate(36 94)"/>
    <rect id="矩形_107" data-name="矩形 107" class="cls-2" width="18" height="1.3" rx="0.65" transform="translate(37 112)"/>
    <g id="路径_59" data-name="路径 59" class="cls-3" transform="translate(38.5 95)">
      <path class="cls-4" d="M1.809,3.372,7.947,1.149a2,2,0,0,1,2,2L10,18.3H0L-.053,6.149A2.676,2.676,0,0,1,1.809,3.372Z"/>
      <path class="cls-5" d="M 8.117107391357422 2.469766616821289 L 2.268965721130371 4.588495254516602 C 1.606564521789551 4.851290702819824 1.247494697570801 5.180974960327148 1.246745109558105 6.145689010620117 L 1.294320106506348 17.00000190734863 L 8.695427894592285 17.00000190734863 L 8.646743774414062 3.148801803588867 C 8.646743774414062 2.821552276611328 8.421038627624512 2.546035766601562 8.117107391357422 2.469766616821289 M 7.946743488311768 1.148801803588867 C 9.051313400268555 1.148801803588867 9.946743011474609 2.044231414794922 9.946743011474609 3.148801803588867 L 10.00000381469727 18.30000114440918 L 3.814697265625e-06 18.30000114440918 L -0.05325698852539062 6.148801803588867 C -0.05325698852539062 5.044231414794922 0.2802438735961914 3.972531318664551 1.809053421020508 3.372430801391602 L 7.946743488311768 1.148801803588867 Z"/>
    </g>
    <g id="路径_58" data-name="路径 58" class="cls-3" transform="translate(47.2 101)">
      <path class="cls-4" d="M0,0,4.869,1.745A2.3,2.3,0,0,1,6.3,4v8.3H0Z"/>
      <path class="cls-5" d="M 1.300000190734863 1.846961975097656 L 1.300000190734863 11 L 5 11 L 5 4 C 5 3.458076477050781 4.842004776000977 3.193088531494141 4.356510162353516 2.942538261413574 L 1.300000190734863 1.846961975097656 M 0 0 L 4.868649959564209 1.745120048522949 C 5.809200286865234 2.20458984375 6.300000190734863 2.895429611206055 6.300000190734863 4 L 6.300000190734863 12.29999923706055 L 0 12.29999923706055 L 0 0 Z"/>
    </g>
    <rect id="矩形_108" data-name="矩形 108" class="cls-2" width="1.3" height="4" rx="0.65" transform="matrix(0.259, 0.966, -0.966, 0.259, 45.414, 101.859)"/>
    <rect id="矩形_109" data-name="矩形 109" class="cls-2" width="1.3" height="4" rx="0.65" transform="matrix(0.259, 0.966, -0.966, 0.259, 45.414, 104.859)"/>
  </g>
</svg>
