<?xml version="1.0" standalone="no"?><!DOCTYPE svg PUBLIC "-//W3C//DTD SVG 1.1//EN" "http://www.w3.org/Graphics/SVG/1.1/DTD/svg11.dtd"><svg class="icon" width="200px" height="200.00px" viewBox="0 0 1024 1024" version="1.1" xmlns="http://www.w3.org/2000/svg"><path   d="M51.2 512a460.8 460.8 0 0 1 460.8-460.8 460.8 460.8 0 0 1 460.8 460.8 460.8 460.8 0 0 1-460.8 460.8 460.8 460.8 0 0 1-460.8-460.8z m66.56 0a394.6496 394.6496 0 0 0 394.24 394.24 394.7008 394.7008 0 0 0 394.24-394.24A394.7008 394.7008 0 0 0 512 117.76 394.7008 394.7008 0 0 0 117.76 512z m621.2096 130.5088l-254.3616-85.0944a33.28 33.28 0 0 1-22.7328-31.5392V252.7744a33.28 33.28 0 0 1 33.28-33.28 33.28 33.28 0 0 1 33.28 33.28v249.1392l231.6288 77.5168a33.2288 33.2288 0 0 1 20.992 42.0864 33.28 33.28 0 0 1-31.5392 22.7328 33.2288 33.2288 0 0 1-10.5984-1.7408z" /></svg>