<?xml version="1.0" standalone="no"?><!DOCTYPE svg PUBLIC "-//W3C//DTD SVG 1.1//EN" "http://www.w3.org/Graphics/SVG/1.1/DTD/svg11.dtd"><svg t="1640327937976" class="icon" viewBox="0 0 1024 1024" version="1.1" xmlns="http://www.w3.org/2000/svg" p-id="3018" xmlns:xlink="http://www.w3.org/1999/xlink" width="200" height="200"><defs><style type="text/css"></style></defs><path d="M213.376 911.829333a99.882667 99.882667 0 0 1-98.133333-101.333333V414.037333a99.84 99.84 0 0 1 98.133333-101.290666H299.093333a213.589333 213.589333 0 0 1 212.992-200.533334 213.546667 213.546667 0 0 1 212.949334 200.533334h85.717333a99.84 99.84 0 0 1 98.133333 101.290666v396.458667a99.882667 99.882667 0 0 1-98.133333 101.333333z m-42.666667-497.792v396.458667a43.434667 43.434667 0 0 0 42.666667 44.074667h597.333333a43.392 43.392 0 0 0 42.666667-44.074667V414.037333a43.349333 43.349333 0 0 0-42.666667-44.032h-597.333333a43.349333 43.349333 0 0 0-42.666667 43.989334zM669.397333 312.746667a157.866667 157.866667 0 0 0-157.312-145.066667 157.866667 157.866667 0 0 0-157.354666 145.066667z m-185.045333 354.133333v-128a27.690667 27.690667 0 0 1 27.690667-27.733333 27.733333 27.733333 0 0 1 27.776 27.733333v128a27.690667 27.690667 0 0 1-27.776 27.690667 27.648 27.648 0 0 1-27.733334-27.733334z" p-id="3019"></path></svg>