<?xml version="1.0" standalone="no"?><!DOCTYPE svg PUBLIC "-//W3C//DTD SVG 1.1//EN" "http://www.w3.org/Graphics/SVG/1.1/DTD/svg11.dtd"><svg t="1638425974529" class="icon" viewBox="0 0 1024 1024" version="1.1" xmlns="http://www.w3.org/2000/svg" p-id="2877" xmlns:xlink="http://www.w3.org/1999/xlink" width="200" height="200"><defs><style type="text/css"></style></defs><path d="M512 168.96a343.04 343.04 0 1 0 343.04 343.04A343.4496 343.4496 0 0 0 512 168.96M512 102.4a409.6 409.6 0 1 1-409.6 409.6 409.6 409.6 0 0 1 409.6-409.6z" p-id="2878"></path><path d="M478.72 691.2v-256a33.2288 33.2288 0 0 1 33.28-33.2288 33.2288 33.2288 0 0 1 33.2288 33.2288v256a33.28 33.28 0 0 1-33.2288 33.28 33.28 33.28 0 0 1-33.28-33.28z m-10.24-391.6288a43.4688 43.4688 0 0 1 43.52-43.52 43.4688 43.4688 0 0 1 43.4688 43.52A43.4688 43.4688 0 0 1 512 343.04a43.4688 43.4688 0 0 1-43.52-43.4688z" p-id="2879"></path></svg>