<?xml version="1.0" standalone="no"?><!DOCTYPE svg PUBLIC "-//W3C//DTD SVG 1.1//EN" "http://www.w3.org/Graphics/SVG/1.1/DTD/svg11.dtd"><svg class="icon" width="200px" height="200.00px" viewBox="0 0 1024 1024" version="1.1" xmlns="http://www.w3.org/2000/svg"><path   d="M141.9264 948.2752a33.7408 33.7408 0 0 1-24.576-10.6496 33.3312 33.3312 0 0 1-9.0624-25.1392 470.528 470.528 0 0 1 30.4128-139.7248 443.2896 443.2896 0 0 1 85.9136-139.8272 403.0464 403.0464 0 0 1 128.5632-95.1296q5.12-2.4064 10.24-4.6592a249.6512 249.6512 0 0 1-110.7456-207.4112 250.0096 250.0096 0 0 1 249.7536-249.7536 250.0096 250.0096 0 0 1 249.7536 249.7536 250.0608 250.0608 0 0 1-234.3424 249.2928 34.304 34.304 0 0 1-5.9392 0.512h-0.3584c-173.056 0-318.2592 149.8112-330.6496 341.0432a33.8432 33.8432 0 0 1-33.6384 31.6416z m235.52-747.52A175.5136 175.5136 0 0 0 325.632 325.8368a175.872 175.872 0 0 0 51.8144 125.0816 175.872 175.872 0 0 0 125.0816 51.8144 175.872 175.872 0 0 0 125.0816-51.8144 175.872 175.872 0 0 0 51.8144-125.0816 175.616 175.616 0 0 0-51.8144-125.0816 175.7184 175.7184 0 0 0-125.0816-51.8656 175.5648 175.5648 0 0 0-125.0304 51.8656z m261.9392 734.4128a33.28 33.28 0 0 1-23.1424-10.8544l-126.6688-139.6736a33.3312 33.3312 0 0 1 2.304-47.0016 33.3312 33.3312 0 0 1 47.0528 2.304l104.1408 114.8928 224.768-205.9264a33.2288 33.2288 0 0 1 47.0016 2.048 33.2288 33.2288 0 0 1-2.048 47.0016l-249.4464 228.5568a33.4848 33.4848 0 0 1-22.4768 8.7552z" /></svg>