<svg xmlns="http://www.w3.org/2000/svg" width="20" height="20" viewBox="0 0 20 20">
  <defs>
    <style>
      .cls-1, .cls-2, .cls-3 {
        fill: none;
      }

      .cls-1 {
        opacity: 0.204;
      }

      .cls-2, .cls-3 {
        stroke-linejoin: round;
      }

      .cls-3 {
        stroke-linecap: round;
      }

      .cls-4, .cls-5 {
        stroke: none;
      }

      .cls-5 {
        fill: #333;
      }
    </style>
  </defs>
  <g id="icon_sjjsgl" transform="translate(-16 -94)">
    <rect id="矩形_14" data-name="矩形 14" class="cls-1" width="20" height="20" transform="translate(16 94)"/>
    <g id="减去_1" data-name="减去 1" class="cls-2" transform="translate(18 96.598)">
      <path class="cls-4" d="M7.878,15.744A7.879,7.879,0,0,1,7.415,0V7.4h8.328c.009.16.013.315.013.464A7.887,7.887,0,0,1,7.878,15.744Z"/>
      <path class="cls-5" d="M 7.878059864044189 14.44355773925781 C 11.22249317169189 14.44355773925781 13.99203681945801 11.93556976318359 14.40406322479248 8.701687812805176 L 7.415090084075928 8.701687812805176 C 6.697120189666748 8.701687812805176 6.115089893341064 8.119657516479492 6.115089893341064 7.401687622070312 L 6.115089893341064 1.525091171264648 C 3.327143430709839 2.298138380050659 1.299999952316284 4.859377384185791 1.299999952316284 7.865497589111328 C 1.299999952316284 11.49264717102051 4.250909805297852 14.44355773925781 7.878059864044189 14.44355773925781 M 7.878059864044189 15.74355792999268 C 3.534080028533936 15.74355792999268 -4.241943329930109e-08 12.20947742462158 -4.241943329930109e-08 7.865497589111328 C -4.241943329930109e-08 3.695817470550537 3.257089853286743 0.2408875375986099 7.415090084075928 -2.465515080984915e-06 L 7.415090084075928 7.401687622070312 L 15.74349975585938 7.401687622070312 C 15.75273990631104 7.561347484588623 15.75695991516113 7.717097759246826 15.75695991516113 7.865497589111328 C 15.75695991516113 12.20947742462158 12.22249984741211 15.74355792999268 7.878059864044189 15.74355792999268 Z"/>
    </g>
    <g id="减去_2" data-name="减去 2" class="cls-3" transform="translate(27.342 94.658)">
      <path class="cls-4" d="M0,7.414V.013Q.23,0,.463,0A7.879,7.879,0,0,1,8.328,7.414Z"/>
      <path class="cls-5" d="M 6.80313777923584 6.114259719848633 C 6.102758407592773 3.589314699172974 3.935866355895996 1.688761472702026 1.300003170967102 1.35296630859375 L 1.300003170967102 6.114259719848633 L 6.80313777923584 6.114259719848633 M 8.328423500061035 7.414259910583496 L 3.180542080372106e-06 7.414259910583496 L 3.180542080372106e-06 0.01340995542705059 C 0.1531331837177277 0.004539955407381058 0.3076131939888 -4.470825132329992e-08 0.4629731774330139 -4.470825132329992e-08 C 4.658473014831543 -4.470825132329992e-08 8.088433265686035 3.278939962387085 8.328423500061035 7.414259910583496 Z"/>
    </g>
  </g>
</svg>
