<?xml version="1.0" standalone="no"?><!DOCTYPE svg PUBLIC "-//W3C//DTD SVG 1.1//EN" "http://www.w3.org/Graphics/SVG/1.1/DTD/svg11.dtd"><svg class="icon" width="200px" height="200.00px" viewBox="0 0 1024 1024" version="1.1" xmlns="http://www.w3.org/2000/svg"><path   d="M512.298667 965.376a143.189333 143.189333 0 0 1-139.306667-110.933333H179.498667a76.416 76.416 0 0 1-76.330667-76.330667 81.365333 81.365333 0 0 1 27.861333-58.154667 32 32 0 0 1 7.466667-6.698666 67.712 67.712 0 0 0 30.976-57.002667v-197.333333A328.96 328.96 0 0 1 246.656 247.893333a345.258667 345.258667 0 0 1 168.576-109.098666 98.517333 98.517333 0 0 1 193.578667 0 345.301333 345.301333 0 0 1 168.576 109.141333 328.96 328.96 0 0 1 77.141333 210.986667v197.205333a67.584 67.584 0 0 0 30.250667 56.533333l1.109333 0.725334a32 32 0 0 1 7.296 6.613333 81.322667 81.322667 0 0 1 27.690667 58.24 76.373333 76.373333 0 0 1-76.330667 76.202667H651.52a143.189333 143.189333 0 0 1-139.221333 110.933333z m-334.976-201.130667c-9.514667 8.533333-10.197333 13.824-10.197334 13.866667a12.202667 12.202667 0 0 0 12.330667 12.330667h221.866667a32 32 0 0 1 32 32 78.933333 78.933333 0 0 0 157.866666 0 32 32 0 0 1 32-32h221.525334a12.202667 12.202667 0 0 0 12.330666-12.330667s-0.810667-5.461333-9.984-13.781333a131.413333 131.413333 0 0 1-56.405333-108.16v-197.248a261.290667 261.290667 0 0 0-62.208-169.856 281.344 281.344 0 0 0-156.416-93.568 32 32 0 0 1-25.344-31.317334v-7.04a34.474667 34.474667 0 0 0-68.992 0v7.04a32 32 0 0 1-25.344 31.317334 281.344 281.344 0 0 0-156.501333 93.525333 261.290667 261.290667 0 0 0-62.165334 169.898667v197.205333a131.456 131.456 0 0 1-56.448 108.117333z" /></svg>