<?xml version="1.0" standalone="no"?><!DOCTYPE svg PUBLIC "-//W3C//DTD SVG 1.1//EN" "http://www.w3.org/Graphics/SVG/1.1/DTD/svg11.dtd"><svg class="icon" width="200px" height="200.00px" viewBox="0 0 1024 1024" version="1.1" xmlns="http://www.w3.org/2000/svg"><path   d="M857.898667 283.733333H193.962667a27.733333 27.733333 0 0 1-27.733334-27.733333 27.733333 27.733333 0 0 1 27.733334-27.733333h663.936a27.733333 27.733333 0 0 1 27.733333 27.733333 27.733333 27.733333 0 0 1-27.733333 27.733333zM857.898667 449.706667H415.274667a27.733333 27.733333 0 0 1-27.733334-27.733334 27.733333 27.733333 0 0 1 27.733334-27.733333h442.624a27.733333 27.733333 0 0 1 27.733333 27.733333 27.733333 27.733333 0 0 1-27.733333 27.733334zM857.898667 643.370667H415.274667a27.733333 27.733333 0 0 1-27.733334-27.733334 27.733333 27.733333 0 0 1 27.733334-27.733333h442.624a27.733333 27.733333 0 0 1 27.733333 27.733333 27.733333 27.733333 0 0 1-27.733333 27.733334zM857.898667 836.992H193.962667a27.733333 27.733333 0 0 1-27.733334-27.733333 27.733333 27.733333 0 0 1 27.733334-27.733334h663.936a27.733333 27.733333 0 0 1 27.733333 27.733334 27.733333 27.733333 0 0 1-27.733333 27.733333zM168.234667 514.816l110.592 96.597333a6.314667 6.314667 0 0 0 10.453333-4.736V413.269333a6.314667 6.314667 0 0 0-10.453333-4.736l-110.592 96.725334a6.314667 6.314667 0 0 0-0.554667 8.917333l0.554667 0.554667z" /></svg>