<?xml version="1.0" standalone="no"?><!DOCTYPE svg PUBLIC "-//W3C//DTD SVG 1.1//EN" "http://www.w3.org/Graphics/SVG/1.1/DTD/svg11.dtd"><svg t="1637561505454" class="icon" viewBox="0 0 1024 1024" version="1.1" xmlns="http://www.w3.org/2000/svg" p-id="2852" xmlns:xlink="http://www.w3.org/1999/xlink" width="200" height="200"><defs><style type="text/css"></style></defs><path d="M782.2336 579.072H241.7664a28.8768 28.8768 0 0 0-23.808 45.2096 29.3376 29.3376 0 0 0 6.0416 8.96l127.3344 127.232a28.9792 28.9792 0 1 0 40.96-40.96l-82.8928-82.7392h472.8832a28.8768 28.8768 0 0 0 0-57.7536zM241.7664 445.0304h540.4672a28.8768 28.8768 0 0 0 23.808-45.2096 29.5936 29.5936 0 0 0-4.1984-6.8608L697.7024 265.728a28.8768 28.8768 0 1 0-44.6976 36.608l69.5808 85.0944H241.7664a28.8768 28.8768 0 0 0 0 57.7536z" p-id="2853"></path></svg>