<svg xmlns="http://www.w3.org/2000/svg" width="20" height="20" viewBox="0 0 20 20">
  <defs>
    <style>
      .cls-1, .cls-2, .cls-3 {
        fill: none;
      }

      .cls-1 {
        opacity: 0.204;
      }

      .cls-2, .cls-3 {
        stroke: #333;
        stroke-width: 1.3px;
      }

      .cls-3 {
        stroke-linecap: round;
      }
    </style>
  </defs>
  <g id="icon_zhuanyong" transform="translate(-36 -94)">
    <rect id="矩形_14" data-name="矩形 14" class="cls-1" width="20" height="20" transform="translate(36 94)"/>
    <path id="路径_32" data-name="路径 32" class="cls-2" d="M-121.1,24.124l-2.483-5.321a1.353,1.353,0,0,0-1.064-.621h-10.287A1.23,1.23,0,0,0-136,18.8l-2.572,5.321a1.414,1.414,0,0,0,.177,1.33l7.715,8.336a1.576,1.576,0,0,0,.887.355,1.576,1.576,0,0,0,.887-.355l7.627-8.425a1.073,1.073,0,0,0,.177-1.242Z" transform="translate(175.827 77.836)"/>
    <line id="直线_22" data-name="直线 22" class="cls-3" x2="5.145" transform="translate(43.559 100.832)"/>
  </g>
</svg>
