<?xml version="1.0" standalone="no"?><!DOCTYPE svg PUBLIC "-//W3C//DTD SVG 1.1//EN" "http://www.w3.org/Graphics/SVG/1.1/DTD/svg11.dtd"><svg class="icon" width="200px" height="200.00px" viewBox="0 0 1024 1024" version="1.1" xmlns="http://www.w3.org/2000/svg"><path d="M612.5568 921.6a50.3296 50.3296 0 0 1-49.408-51.2v-256a50.2784 50.2784 0 0 1 49.408-51.2h285.2864a50.2272 50.2272 0 0 1 49.3568 51.2v256a50.2784 50.2784 0 0 1-49.3568 51.2z m17.2032-66.56h250.88v-225.28h-250.88zM126.1056 921.6a50.3296 50.3296 0 0 1-49.3568-51.2v-256a50.2784 50.2784 0 0 1 49.3568-51.2h285.3376A50.2784 50.2784 0 0 1 460.8 614.4v256a50.3296 50.3296 0 0 1-49.3568 51.2z m17.2032-66.56h250.88v-225.28h-250.88zM126.1056 460.8a50.3296 50.3296 0 0 1-49.3568-51.2V153.6a50.2784 50.2784 0 0 1 49.3568-51.2h285.3376A50.2784 50.2784 0 0 1 460.8 153.6v256a50.3296 50.3296 0 0 1-49.3568 51.2z m17.2032-66.56h250.88V168.96h-250.88z m458.2912 7.5264a33.28 33.28 0 0 1-33.28-33.28 33.28 33.28 0 0 1 33.28-33.2288h307.2a33.28 33.28 0 0 1 33.28 33.2288 33.28 33.28 0 0 1-33.28 33.28z m0-174.08a33.28 33.28 0 0 1-33.28-33.2288 33.28 33.28 0 0 1 33.28-33.28h307.2a33.28 33.28 0 0 1 33.28 33.28 33.28 33.28 0 0 1-33.28 33.2288z" /></svg>