<?xml version="1.0" standalone="no"?><!DOCTYPE svg PUBLIC "-//W3C//DTD SVG 1.1//EN" "http://www.w3.org/Graphics/SVG/1.1/DTD/svg11.dtd"><svg t="1640327943566" class="icon" viewBox="0 0 1024 1024" version="1.1" xmlns="http://www.w3.org/2000/svg" p-id="3146" xmlns:xlink="http://www.w3.org/1999/xlink" width="200" height="200"><defs><style type="text/css"></style></defs><path d="M417.024 964.864l-272.085333-180.693333a141.141333 141.141333 0 0 1-64-117.333334v-371.2a143.872 143.872 0 0 1 108.672-137.514666l272.725333-106.666667 3.882667-0.896a153.6 153.6 0 0 1 70.186666 0l4.266667 1.024 272.469333 106.666667a143.872 143.872 0 0 1 108.672 137.514666v371.2a140.8 140.8 0 0 1-64 117.333334l-272.085333 180.693333a151.552 151.552 0 0 1-84.266667 25.258667 151.594667 151.594667 0 0 1-84.437333-25.386667z m62.933333-856.149333l-272.256 106.666666a83.925333 83.925333 0 0 0-67.029333 80.426667v371.2a81.621333 81.621333 0 0 0 37.333333 67.626667l272.085334 180.608a92.544 92.544 0 0 0 51.2 15.317333 92.544 92.544 0 0 0 51.2-15.317333l272.085333-180.608a81.578667 81.578667 0 0 0 37.290667-67.626667v-371.2a83.925333 83.925333 0 0 0-67.029334-80.426667h-0.298666l-272-106.325333a94.378667 94.378667 0 0 0-21.333334-2.474667 94.848 94.848 0 0 0-21.248 2.133334z m-30.634666 507.733333l-116.906667-116.906667a32.384 32.384 0 0 1-1.536-44.842666 31.189333 31.189333 0 0 1 22.997333-9.941334 31.402667 31.402667 0 0 1 22.357334 9.258667l95.488 95.488 153.6-153.6a33.877333 33.877333 0 0 1 23.637333-9.770667 30.677333 30.677333 0 0 1 21.333333 8.277334 31.189333 31.189333 0 0 1 9.984 22.485333 31.402667 31.402667 0 0 1-9.258666 22.869333l-176.682667 176.682667a31.530667 31.530667 0 0 1-22.4 9.258667 31.530667 31.530667 0 0 1-22.613333-9.216z" p-id="3147"></path></svg>