<?xml version="1.0" standalone="no"?><!DOCTYPE svg PUBLIC "-//W3C//DTD SVG 1.1//EN" "http://www.w3.org/Graphics/SVG/1.1/DTD/svg11.dtd"><svg class="icon" width="200px" height="200.00px" viewBox="0 0 1024 1024" version="1.1" xmlns="http://www.w3.org/2000/svg"><path   d="M204.8 168.96a35.84 35.84 0 0 0-35.84 35.84v460.8a35.84 35.84 0 0 0 35.84 35.84h614.4a35.84 35.84 0 0 0 35.84-35.84V204.8a35.84 35.84 0 0 0-35.84-35.84H204.8M204.8 102.4h614.4a102.4 102.4 0 0 1 102.4 102.4v460.8a102.4 102.4 0 0 1-102.4 102.4H204.8a102.4 102.4 0 0 1-102.4-102.4V204.8a102.4 102.4 0 0 1 102.4-102.4zM844.8 929.28h-665.6a33.28 33.28 0 0 1-33.28-33.28 33.28 33.28 0 0 1 33.28-33.28h665.6a33.28 33.28 0 0 1 33.28 33.28 33.28 33.28 0 0 1-33.28 33.28zM512 903.68a33.28 33.28 0 0 1-33.28-33.28v-102.4a33.28 33.28 0 0 1 33.28-33.28 33.28 33.28 0 0 1 33.28 33.28v102.4a33.28 33.28 0 0 1-33.28 33.28z" /></svg>