<svg xmlns="http://www.w3.org/2000/svg" width="20" height="20" viewBox="0 0 20 20">
  <defs>
    <style>
      .cls-1 {
        fill: none;
      }

      .cls-2 {
        fill: #333;
      }
    </style>
  </defs>
  <g id="icon_guidang" transform="translate(-16 -94)">
    <rect id="矩形_14" data-name="矩形 14" class="cls-1" width="20" height="20" transform="translate(16 94)"/>
    <g id="组_221" data-name="组 221" transform="translate(56.5 4.109)">
      <path id="路径_57" data-name="路径 57" class="cls-2" d="M-1611.125-6204.688c0-.759.551-1.456,1.595-2.015a10.585,10.585,0,0,1,3.338-1.011v-.187c-1.479-1.106-2.2-3-2.2-5.8a4.053,4.053,0,0,1,4.418-4.406h.145a4.055,4.055,0,0,1,4.419,4.406c0,1.031,0,4.165-2.183,5.805l0,.187a10.513,10.513,0,0,1,3.327,1.011c1.041.559,1.592,1.255,1.592,2.012,0,2.26-2.43,3.4-7.224,3.4S-1611.125-6202.429-1611.125-6204.688Zm3.987-9.076c0,2.512.626,4.127,1.912,4.939a.692.692,0,0,1,.315.583v1.165a.671.671,0,0,1-.587.679c-2.517.262-4.41,1.264-4.41,1.784,0,.955,1.042,2.091,6.008,2.091s6.007-1.136,6.007-2.091c0-.521-1.893-1.523-4.407-1.784a.669.669,0,0,1-.588-.7l.023-1.163a.685.685,0,0,1,.314-.567c1.287-.814,1.888-2.384,1.888-4.94,0-1.417-.549-3.105-3.163-3.105h-.148C-1605.418-6216.87-1607.137-6216.332-1607.137-6213.765Zm12.253,7.731h0a.6.6,0,0,1-.421-.187.59.59,0,0,1-.164-.427,4.053,4.053,0,0,0-2.9-1.42.6.6,0,0,1-.523-.61v-1.064a.619.619,0,0,1,.27-.514c1.214-.816,1.345-2.651,1.345-3.4a1.806,1.806,0,0,0-1.982-2.04.586.586,0,0,1-.42-.186.589.589,0,0,1-.165-.428.592.592,0,0,1,.164-.423.593.593,0,0,1,.418-.187,2.979,2.979,0,0,1,3.155,3.263c0,.874-.158,3.031-1.615,4.231v.226c1.34.278,3.422,1.206,3.422,2.555a.59.59,0,0,1-.164.426.6.6,0,0,1-.418.188ZM-1594.884-6206.083Zm-18.027.05h0a.6.6,0,0,1-.423-.186.6.6,0,0,1-.164-.429,2.14,2.14,0,0,1,1.2-1.666,6.932,6.932,0,0,1,2.225-.888v-.226c-1.458-1.2-1.615-3.357-1.615-4.231a2.978,2.978,0,0,1,3.152-3.263.605.605,0,0,1,.423.186.608.608,0,0,1,.164.431.58.58,0,0,1-.165.421.582.582,0,0,1-.417.186,1.808,1.808,0,0,0-1.985,2.04c0,.75.131,2.586,1.345,3.4a.627.627,0,0,1,.27.514v1.066a.6.6,0,0,1-.523.608,4.046,4.046,0,0,0-2.9,1.422.589.589,0,0,1-.164.426.6.6,0,0,1-.417.188ZM-1612.911-6206.083Z" transform="translate(1573.4 6310.048)"/>
    </g>
  </g>
</svg>
