<?xml version="1.0" standalone="no"?><!DOCTYPE svg PUBLIC "-//W3C//DTD SVG 1.1//EN" "http://www.w3.org/Graphics/SVG/1.1/DTD/svg11.dtd"><svg class="icon" width="200px" height="200.00px" viewBox="0 0 1024 1024" version="1.1" xmlns="http://www.w3.org/2000/svg"><path   d="M205.6704 959.0272a80.3328 80.3328 0 0 1-80.2304-80.2304v-322.56a97.8944 97.8944 0 0 1-66.56-92.7232 98.6624 98.6624 0 0 1 98.5088-98.6624h221.184V185.0368a120.3712 120.3712 0 0 1 120.2176-120.2176h30.72a120.32 120.32 0 0 1 120.2176 120.2176v179.8144h216.4736a98.7136 98.7136 0 0 1 98.6112 98.6624 98.9184 98.9184 0 0 1-60.672 90.624v324.5568a80.3328 80.3328 0 0 1-80.2816 80.2304z m528.128-181.4016v113.3568h90.2656a12.2368 12.2368 0 0 0 12.2368-12.288v-316.5696H193.4848v316.672a12.2368 12.2368 0 0 0 12.2368 12.1856h90.368v-113.3568a34.048 34.048 0 0 1 33.9968-33.9968 34.048 34.048 0 0 1 33.9456 33.9968v113.3568h116.992v-113.3568a33.9968 33.9968 0 0 1 33.9456-33.9968 33.9968 33.9968 0 0 1 33.9456 33.9968v113.3568h116.8896v-113.3568a34.048 34.048 0 0 1 33.9968-33.9968 33.9968 33.9968 0 0 1 33.9968 33.9456zM127.0272 463.616a30.72 30.72 0 0 0 30.464 30.4128h709.0176a30.72 30.72 0 0 0 30.72-30.4128 30.72 30.72 0 0 0-30.72-30.72H157.5936a30.72 30.72 0 0 0-30.5664 30.72z m319.6928-278.4768v179.8144h135.168V185.1392a52.224 52.224 0 0 0-52.1728-52.1216h-30.72a52.224 52.224 0 0 0-52.2752 52.1216z" /></svg>