<svg xmlns="http://www.w3.org/2000/svg" xmlns:xlink="http://www.w3.org/1999/xlink" width="20" height="20" viewBox="0 0 20 20">
  <defs>
    <style>
      .cls-1, .cls-4, .cls-5 {
        fill: none;
      }

      .cls-2, .cls-3 {
        isolation: isolate;
      }

      .cls-2 {
        clip-path: url(#clip-path);
      }

      .cls-3 {
        clip-path: url(#clip-path-2);
      }

      .cls-5 {
        stroke: #333;
        stroke-width: 1.3px;
      }

      .cls-6 {
        fill: #333;
      }

      .cls-7, .cls-8 {
        stroke: none;
      }

      .cls-8 {
        fill: #333;
      }
    </style>
    <clipPath id="clip-path">
      <rect class="cls-1" width="20" height="20"/>
    </clipPath>
    <clipPath id="clip-path-2">
      <rect class="cls-1" x="3" y="3" width="18.323" height="18.78"/>
    </clipPath>
  </defs>
  <g id="icon_juese" class="cls-2">
    <g id="组_220" data-name="组 220" transform="translate(-36 -94)">
      <rect id="矩形_14" data-name="矩形 14" class="cls-1" width="20" height="20" transform="translate(36 94)"/>
      <g id="滚动组_1" data-name="滚动组 1" class="cls-3" transform="translate(33.5 91.61)">
        <g id="路径_56" data-name="路径 56" class="cls-4" transform="translate(8.151 -0.163) rotate(30)">
          <path class="cls-7" d="M13.112,0a2,2,0,0,1,1.72.979l2.915,5.049c.964,1.594.32,2.719-.007,3.682l-2.408,6.177a2,2,0,0,1-1.72.979l-6.8-.85A3.894,3.894,0,0,1,3.595,14.2L.606,9.021a2,2,0,0,1,0-2.042L4.822,1.757A2,2,0,0,1,6.541.778Z"/>
          <path class="cls-8" d="M 13.16844367980957 1.302351951599121 L 6.618095397949219 2.078442573547363 L 6.541356086730957 2.078442573547363 C 6.295565605163574 2.078442573547363 6.064935684204102 2.209722518920898 5.939465522766113 2.421052932739258 L 5.891805648803711 2.501322746276855 L 1.691549301147461 7.70415210723877 C 1.594276428222656 7.912548065185547 1.605121612548828 8.157020568847656 1.724075317382812 8.357373237609863 L 1.732095718383789 8.371072769165039 L 4.720795631408691 13.54766273498535 C 5.203926086425781 14.38445281982422 5.835075378417969 14.5301628112793 6.824845314025879 14.6986026763916 C 6.887124061584473 14.70920085906982 6.948604583740234 14.71967029571533 7.009167671203613 14.73026466369629 L 13.67156505584717 15.56340885162354 C 13.86806488037109 15.54627513885498 14.0497875213623 15.44585132598877 14.16898345947266 15.28929805755615 L 16.51756286621094 9.263471603393555 C 16.56230545043945 9.13325309753418 16.60989761352539 9.005667686462402 16.65602493286133 8.882002830505371 C 16.95403480529785 8.083123207092285 17.15090560913086 7.555353164672852 16.63372611999512 6.700383186340332 L 16.62021636962891 6.677522659301758 L 13.7105188369751 1.637779235839844 C 13.59428405761719 1.445588111877441 13.39062690734863 1.32071590423584 13.16844367980957 1.302351951599121 M 13.1115255355835 3.814697265625e-06 C 13.81733512878418 3.814697265625e-06 14.47089576721191 0.3720226287841797 14.83123588562012 0.9789228439331055 L 17.74604606628418 6.027523040771484 C 18.71052551269531 7.621932983398438 18.06563568115234 8.746402740478516 17.73887634277344 9.709743499755859 L 15.33123588562012 15.88710308074951 C 14.97089576721191 16.49400329589844 14.31733512878418 16.86602210998535 13.6115255355835 16.86602210998535 L 6.815775871276855 16.01620292663574 C 5.785635948181152 15.83400344848633 4.465975761413574 15.70628261566162 3.594965934753418 14.19766330718994 L 0.6062660217285156 9.021072387695312 C 0.2325458526611328 8.391653060913086 0.2325458526611328 7.608343124389648 0.6062660217285156 6.978922843933105 L 4.821645736694336 1.757363319396973 C 5.181985855102539 1.150463104248047 5.835536003112793 0.7784423828125 6.541356086730957 0.7784423828125 L 13.1115255355835 3.814697265625e-06 Z"/>
        </g>
        <g id="椭圆_24" data-name="椭圆 24" class="cls-5" transform="translate(9.228 6.64)">
          <circle class="cls-7" cx="3.25" cy="3.25" r="3.25"/>
          <circle class="cls-1" cx="3.25" cy="3.25" r="2.6"/>
        </g>
        <rect id="矩形_105" data-name="矩形 105" class="cls-6" width="1.3" height="5.5" rx="0.65" transform="translate(11.828 12.39)"/>
        <rect id="矩形_106" data-name="矩形 106" class="cls-6" width="1.3" height="3.9" rx="0.65" transform="translate(15.728 14.39) rotate(90)"/>
      </g>
    </g>
  </g>
</svg>
