<svg xmlns="http://www.w3.org/2000/svg" width="20" height="20" viewBox="0 0 20 20">
  <defs>
    <style>
      .cls-1 {
        fill: none;
        opacity: 0.204;
      }

      .cls-2 {
        fill: #333;
        stroke: #333;
        stroke-width: 0.2px;
      }
    </style>
  </defs>
  <g id="icon_huancunjiankong" transform="translate(-16 -94)">
    <rect id="矩形_42" data-name="矩形 42" class="cls-1" width="20" height="20" transform="translate(16 94)"/>
    <path id="路径_86" data-name="路径 86" class="cls-2" d="M17.5,10.146A1.828,1.828,0,0,0,15.67,8.321H11.342V4.709A2.249,2.249,0,0,0,9.094,2.461h-.6A2.249,2.249,0,0,0,6.244,4.709V8.321H1.824A1.82,1.82,0,0,0,1.3,11.885v6.37a1.468,1.468,0,0,0,1.467,1.467H14.843a1.468,1.468,0,0,0,1.467-1.467V11.849A1.823,1.823,0,0,0,17.5,10.146ZM7.373,4.709A1.12,1.12,0,0,1,8.492,3.59h.6a1.12,1.12,0,0,1,1.119,1.119V8.321H7.373Zm7.47,13.885H12.98V16.279a.564.564,0,0,0-1.127,0v2.314H9.369V16.279a.564.564,0,0,0-1.127,0v2.314H5.757V16.279a.564.564,0,0,0-1.127,0v2.314H2.765a.339.339,0,0,1-.338-.338V11.97H15.181v6.283a.339.339,0,0,1-.338.34Zm.828-7.752H1.824a.7.7,0,0,1,0-1.392H15.67a.7.7,0,1,1,0,1.392Z" transform="translate(17.252 92.908)"/>
  </g>
</svg>
