<?xml version="1.0" standalone="no"?><!DOCTYPE svg PUBLIC "-//W3C//DTD SVG 1.1//EN" "http://www.w3.org/Graphics/SVG/1.1/DTD/svg11.dtd"><svg class="icon" width="200px" height="200.00px" viewBox="0 0 1024 1024" version="1.1" xmlns="http://www.w3.org/2000/svg"><path   d="M51.2 921.6m33.28 0l855.04 0q33.28 0 33.28 33.28l0 0q0 33.28-33.28 33.28l-855.04 0q-33.28 0-33.28-33.28l0 0q0-33.28 33.28-33.28ZM543.5904 177.664l-299.4176 108.4416a71.68 71.68 0 0 0-52.3264 79.7696L194.2528 921.6H573.44l-2.7136-709.1712a35.84 35.84 0 0 0-27.136-34.7648m-8.704-67.6352a102.4 102.4 0 0 1 102.4 102.4L640 988.16h-512l-2.7136-622.1312a137.0112 137.0112 0 0 1 95.3344-142.1824zM640 452.9664V921.6h189.44v-358.4a51.6096 51.6096 0 0 0-32.9216-54.1184l-156.5184-56.1152M573.44 358.4l249.2928 89.344A117.76 117.76 0 0 1 896 563.2v424.96h-322.56zM481.451871 402.150429m8.619108 32.144508l0 0q8.619108 32.144508-23.5254 40.763615l-133.523339 35.80245q-32.144508 8.619108-40.763616-23.525399l0 0q-8.619108-32.144508 23.525399-40.763616l133.52334-35.80245q32.144508-8.619108 40.763616 23.5254ZM481.459129 555.740968m8.619109 32.144507l0 0q8.619108 32.144508-23.5254 40.763616l-133.523339 35.80245q-32.144508 8.619108-40.763616-23.5254l0 0q-8.619108-32.144508 23.525399-40.763616l133.52334-35.802449q32.144508-8.619108 40.763616 23.525399Z" /></svg>