<?xml version="1.0" standalone="no"?><!DOCTYPE svg PUBLIC "-//W3C//DTD SVG 1.1//EN" "http://www.w3.org/Graphics/SVG/1.1/DTD/svg11.dtd"><svg class="icon" width="200px" height="200.00px" viewBox="0 0 1024 1024" version="1.1" xmlns="http://www.w3.org/2000/svg"><path   d="M449.8432 930.2016l-3.2768-2.2016-2.7136-2.9184-396.1856-428.032-1.024-1.3824A105.3696 105.3696 0 0 1 33.28 395.2128l0.9216-2.1504 131.8912-272.8448a96.5632 96.5632 0 0 1 84.224-50.1248h526.7456a100.9664 100.9664 0 0 1 81.1008 45.056l2.0992 2.7648 129.3312 277.2992a87.4496 87.4496 0 0 1-15.8208 98.816l-392.7552 433.8688-3.4816 2.2528a110.592 110.592 0 0 1-63.8464 23.7568 110.848 110.848 0 0 1-63.8464-23.7056zM225.6384 149.8624L94.6688 420.8128a39.3728 39.3728 0 0 0 4.352 33.7408l390.9632 422.4a46.08 46.08 0 0 0 23.7056 10.24 45.4144 45.4144 0 0 0 23.5008-10.24l389.12-429.4656c3.1232-3.1232 8.9088-8.96 1.9968-26.9312l-125.0816-268.0832a35.1744 35.1744 0 0 0-25.9072-15.9744H250.5728a30.72 30.72 0 0 0-24.7808 13.3632z m161.3824 233.216a33.28 33.28 0 0 1-33.3312-33.28 33.28 33.28 0 0 1 33.3312-33.28h263.424a33.28 33.28 0 0 1 33.3312 33.28 33.28 33.28 0 0 1-33.3312 33.28z" /></svg>