<?xml version="1.0" standalone="no"?><!DOCTYPE svg PUBLIC "-//W3C//DTD SVG 1.1//EN" "http://www.w3.org/Graphics/SVG/1.1/DTD/svg11.dtd"><svg t="1638425981876" class="icon" viewBox="0 0 1024 1024" version="1.1" xmlns="http://www.w3.org/2000/svg" p-id="3006" xmlns:xlink="http://www.w3.org/1999/xlink" width="200" height="200"><defs><style type="text/css"></style></defs><path d="M205.0048 921.6512a102.4 102.4 0 0 1-102.4-102.4v-563.2a102.4 102.4 0 0 1 102.4-102.4h135.8336v-25.6a33.28 33.28 0 0 1 33.28-33.2288 33.28 33.28 0 0 1 33.28 33.2288v25.6h189.44v-25.6a33.28 33.28 0 0 1 33.28-33.2288 33.28 33.28 0 0 1 33.28 33.2288v25.6h155.9552a102.4 102.4 0 0 1 102.4 102.4v563.2a102.4 102.4 0 0 1-102.4 102.4z m-35.84-665.6v563.2a35.84 35.84 0 0 0 35.84 35.84h614.4a35.84 35.84 0 0 0 35.84-35.84v-563.2a35.84 35.84 0 0 0-35.84-35.84h-155.9552v45.1584a33.28 33.28 0 0 1-33.28 33.2288 33.28 33.28 0 0 1-33.28-33.2288v-45.1584h-189.44v45.1584a33.28 33.28 0 0 1-33.28 33.2288 33.28 33.28 0 0 1-33.28-33.2288v-45.1584H205.0048a35.84 35.84 0 0 0-35.84 35.84z m133.4784 391.68a33.28 33.28 0 0 1-33.28-33.28 33.28 33.28 0 0 1 33.28-33.28h256a33.28 33.28 0 0 1 33.28 33.28 33.28 33.28 0 0 1-33.28 33.28z m0-153.6a33.28 33.28 0 0 1-33.28-33.28 33.28 33.28 0 0 1 33.28-33.2288h378.88a33.28 33.28 0 0 1 33.28 33.2288 33.28 33.28 0 0 1-33.28 33.28z" p-id="3007"></path></svg>