<?xml version="1.0" standalone="no"?><!DOCTYPE svg PUBLIC "-//W3C//DTD SVG 1.1//EN" "http://www.w3.org/Graphics/SVG/1.1/DTD/svg11.dtd"><svg class="icon" width="200px" height="187.72px" viewBox="0 0 1091 1024" version="1.1" xmlns="http://www.w3.org/2000/svg"><path   d="M771.244077 242.600551l-284.9146-122.42865-3.150046-1.786593a33.051974 33.051974 0 0 0-32.581819-0.235078l-3.808264 2.162718-293.37741 113.119559a32.910927 32.910927 0 0 0-14.010652 27.363085v281.764555c0 45.41708 22.285399 66.19798 58.628466 96.334986l6.770248 5.641873 251.674564 190.507255a33.09899 33.09899 0 0 0 26.704867 0.517172l237.287787-190.13113c4.889624-4.231405 9.826263-8.321763 14.574839-12.224059 30.936272-25.576492 51.341047-42.408081 50.400735-89.376676V268.929293a33.09899 33.09899 0 0 0-14.198715-26.328742m28.303398-54.397062a94.031221 94.031221 0 0 1 47.01561 80.255648v274.10101c1.786593 87.590083-50.917906 118.197245-86.884848 149.74472l-243.211754 194.926722a94.031221 94.031221 0 0 1-93.090909-0.564188l-256.705234-194.362534c-37.612489-31.641506-88.389348-67.843526-88.389348-149.74472V261.547842a94.031221 94.031221 0 0 1 48.049954-83.170615l294.364738-113.495684a94.031221 94.031221 0 0 1 93.043894 0.564187l285.807897 122.710744zM469.168779 446.131129l18.712213-3.667217c27.269054-5.35978 44.993939-19.981635 49.789531-27.974288l1.222406-1.927641c18.148026-27.833242 21.862259-44.053627 21.862259-59.897887a91.821488 91.821488 0 0 0-91.680441-91.774472 91.868503 91.868503 0 0 0-91.68044 91.774472c0 43.395409 30.795225 81.101928 73.250321 89.705785l18.524151 3.761248m-0.047016 282.657852a30.560147 30.560147 0 0 1-30.560147-30.607163v-195.914049a152.753719 152.753719 0 0 1 30.560147-302.498439 152.800735 152.800735 0 0 1 152.800735 152.894766c0 29.807897-8.603857 57.688154-31.876584 93.278971-14.99798 25.012305-49.131313 48.426079-90.41102 56.512764v61.731497h91.727457a30.560147 30.560147 0 0 1 0 61.120294h-91.727457v72.874196a30.560147 30.560147 0 0 1-30.560147 30.560147z" /></svg>