<?xml version="1.0" standalone="no"?><!DOCTYPE svg PUBLIC "-//W3C//DTD SVG 1.1//EN" "http://www.w3.org/Graphics/SVG/1.1/DTD/svg11.dtd"><svg class="icon" width="200px" height="200.00px" viewBox="0 0 1024 1024" version="1.1" xmlns="http://www.w3.org/2000/svg"><path   d="M204.8 921.6a102.4 102.4 0 0 1-102.4-102.4V204.8a102.4 102.4 0 0 1 102.4-102.4h614.4a102.4 102.4 0 0 1 102.4 102.4v614.4a102.4 102.4 0 0 1-102.4 102.4z m-35.84-102.4a35.84 35.84 0 0 0 35.84 35.84h614.4a35.84 35.84 0 0 0 35.84-35.84V366.08H168.96z m0-614.4v94.72h686.08V204.8a35.84 35.84 0 0 0-35.84-35.84H204.8a35.84 35.84 0 0 0-35.84 35.84z m266.24 519.68a33.28 33.28 0 0 1-33.28-33.2288 33.3312 33.3312 0 0 1 33.28-33.28h307.2a33.3312 33.3312 0 0 1 33.28 33.28 33.28 33.28 0 0 1-33.28 33.2288z m0-153.6a33.3312 33.3312 0 0 1-33.28-33.28 33.28 33.28 0 0 1 33.28-33.2288h307.2a33.28 33.28 0 0 1 33.28 33.2288 33.3312 33.3312 0 0 1-33.28 33.28z" /></svg>