<?xml version="1.0" standalone="no"?><!DOCTYPE svg PUBLIC "-//W3C//DTD SVG 1.1//EN" "http://www.w3.org/Graphics/SVG/1.1/DTD/svg11.dtd"><svg class="icon" width="200px" height="200.00px" viewBox="0 0 1024 1024" version="1.1" xmlns="http://www.w3.org/2000/svg"><path   d="M137.8304 921.6a51.2 51.2 0 0 1-51.2-51.2v-256a51.2 51.2 0 0 1 51.2-51.2h706.9184a51.2 51.2 0 0 1 51.2 51.2v256a51.2 51.2 0 0 1-51.2 51.2z m15.36-66.56h676.1984v-225.28H153.1904z m-15.36-412.7232a51.2 51.2 0 0 1-51.2-51.2v-256a51.2 51.2 0 0 1 51.2-51.2h706.9184a51.2 51.2 0 0 1 51.2 51.2v256a51.2 51.2 0 0 1-51.2 51.2z m15.36-66.56h676.1984v-225.28H153.1904z" /></svg>