<?xml version="1.0" standalone="no"?><!DOCTYPE svg PUBLIC "-//W3C//DTD SVG 1.1//EN" "http://www.w3.org/Graphics/SVG/1.1/DTD/svg11.dtd"><svg class="icon" width="200px" height="200.00px" viewBox="0 0 1024 1024" version="1.1" xmlns="http://www.w3.org/2000/svg"><path   d="M102.4 535.7056a403.5072 403.5072 0 0 1 379.648-402.688v378.88h426.3936c0.4608 8.192 0.7168 16.1792 0.7168 23.808a403.8144 403.8144 0 0 1-403.4048 403.3536A403.8144 403.8144 0 0 1 102.4 535.7056z m66.56 0a337.152 337.152 0 0 0 336.7936 336.7936 337.3056 337.3056 0 0 0 334.1312-293.9904H482.048a66.56 66.56 0 0 1-66.56-66.56V211.0976a337.2544 337.2544 0 0 0-246.528 324.608z m411.7504-122.4192v-378.88c7.8848-0.4096 15.7696-0.7168 23.7568-0.7168a403.456 403.456 0 0 1 402.688 379.648z m66.56-66.56h281.6a337.2544 337.2544 0 0 0-281.6-243.7632z" /></svg>