<svg xmlns="http://www.w3.org/2000/svg" width="20" height="20" viewBox="0 0 20 20">
  <defs>
    <style>
      .cls-1 {
        fill: none;
        opacity: 0.204;
      }

      .cls-2, .cls-3 {
        fill: #333;
        stroke: #333;
      }

      .cls-2 {
        stroke-width: 0.2px;
      }

      .cls-3 {
        stroke-width: 0.5px;
      }
    </style>
  </defs>
  <g id="icon_zidianguanli" transform="translate(-16 -94)">
    <rect id="矩形_42" data-name="矩形 42" class="cls-1" width="20" height="20" transform="translate(16 94)"/>
    <path id="路径_73" data-name="路径 73" class="cls-2" d="M50.24,30.067a2.2,2.2,0,0,1,2.2,2.071l0,.125-.018,10.772a2.2,2.2,0,0,1-2.076,2.192l-.125,0-11.865.063v.221a1.243,1.243,0,0,0,.977,1.1l.084.006,12.545-.064a.134.134,0,0,1,.135.134v.48a.615.615,0,0,1-.615.615H50.226l-10.808.064a2.444,2.444,0,0,1-2.288-2.213l0-.123.018-13.189a2.2,2.2,0,0,1,2.076-2.192l.125,0,10.9-.064Zm0,1.23-10.9.064a.967.967,0,0,0-.964.873l0,.094-.018,11.737L50.222,44a.968.968,0,0,0,.964-.873l0-.093.018-10.771a.967.967,0,0,0-.875-.961l-.093,0Z" transform="translate(-18.783 65.147)"/>
    <path id="路径_74" data-name="路径 74" class="cls-3" d="M.576-5.712V0H2.56A2.671,2.671,0,0,0,4.624-.784a2.958,2.958,0,0,0,.688-2.072,3.044,3.044,0,0,0-.64-2.072,2.574,2.574,0,0,0-2.048-.784Zm.656.568H2.52a2.1,2.1,0,0,1,1.648.584,2.505,2.505,0,0,1,.5,1.7,2.436,2.436,0,0,1-.536,1.7,2.225,2.225,0,0,1-1.68.592H1.232Z" transform="translate(23.722 105.712)"/>
  </g>
</svg>
