<?xml version="1.0" standalone="no"?><!DOCTYPE svg PUBLIC "-//W3C//DTD SVG 1.1//EN" "http://www.w3.org/Graphics/SVG/1.1/DTD/svg11.dtd"><svg class="icon" width="200px" height="200.00px" viewBox="0 0 1024 1024" version="1.1" xmlns="http://www.w3.org/2000/svg"><path   d="M204.8 921.6a102.4 102.4 0 0 1-102.4-102.4V204.8a102.4 102.4 0 0 1 102.4-102.4h614.4a102.4 102.4 0 0 1 102.4 102.4v614.4a102.4 102.4 0 0 1-102.4 102.4z m614.4-66.56a35.84 35.84 0 0 0 35.84-35.84V417.28H468.48v437.76zM168.96 204.8v614.4a35.84 35.84 0 0 0 35.84 35.84h197.12V168.96H204.8a35.84 35.84 0 0 0-35.84 35.84z m686.08 145.92V204.8a35.84 35.84 0 0 0-35.84-35.84H468.48v181.76z" /></svg>