<?xml version="1.0" standalone="no"?><!DOCTYPE svg PUBLIC "-//W3C//DTD SVG 1.1//EN" "http://www.w3.org/Graphics/SVG/1.1/DTD/svg11.dtd"><svg t="1640327920504" class="icon" viewBox="0 0 1024 1024" version="1.1" xmlns="http://www.w3.org/2000/svg" p-id="2890" xmlns:xlink="http://www.w3.org/1999/xlink" width="200" height="200"><defs><style type="text/css"></style></defs><path d="M298.666667 938.666667a170.666667 170.666667 0 0 1-170.666667-170.666667 170.666667 170.666667 0 0 1 170.666667-170.666667h384a170.666667 170.666667 0 0 1 170.666666 170.666667 170.666667 170.666667 0 0 1-170.666666 170.666667z m-115.2-170.666667A115.2 115.2 0 0 0 298.666667 883.2h384a115.2 115.2 0 0 0 115.2-115.2 115.2 115.2 0 0 0-115.2-115.2H298.666667A115.2 115.2 0 0 0 183.466667 768zM256 320A234.666667 234.666667 0 0 1 490.666667 85.333333 234.666667 234.666667 0 0 1 725.333333 320a234.666667 234.666667 0 0 1-234.666666 234.666667A234.666667 234.666667 0 0 1 256 320z m55.466667 0a179.456 179.456 0 0 0 179.2 179.2 179.2 179.2 0 0 0 179.2-179.2 179.2 179.2 0 0 0-179.2-179.2 179.456 179.456 0 0 0-179.2 179.2z" p-id="2891"></path></svg>