<?xml version="1.0" standalone="no"?><!DOCTYPE svg PUBLIC "-//W3C//DTD SVG 1.1//EN" "http://www.w3.org/Graphics/SVG/1.1/DTD/svg11.dtd"><svg class="icon" width="200px" height="200.00px" viewBox="0 0 1024 1024" version="1.1" xmlns="http://www.w3.org/2000/svg"><path   d="M808.085364 938.010224l-137.725942-165.321952a32.932255 32.932255 0 0 1-7.623207-21.141694H356.740682a32.932255 32.932255 0 0 1-7.623207 19.566232l-137.776763 165.321951a32.983076 32.983076 0 0 1-25.410691 11.892203 32.830612 32.830612 0 0 1-21.141694-7.674028 33.033897 33.033897 0 0 1-4.218175-46.552385l118.87121-142.604794H181.661025a50.821381 50.821381 0 0 1-50.82138-50.821381v-508.213807a50.821381 50.821381 0 0 1 50.82138-50.821381h301.929823V32.983076a33.033897 33.033897 0 0 1 33.033898-33.033897 32.983076 32.983076 0 0 1 32.983076 33.033897v108.656112h292.781974a50.821381 50.821381 0 0 1 50.821381 50.821381v508.213807a50.821381 50.821381 0 0 1-50.821381 50.821381h-103.675617l120.141744 144.180257a33.084719 33.084719 0 0 1-4.218174 46.552384 33.033897 33.033897 0 0 1-21.141695 7.623208 33.033897 33.033897 0 0 1-25.41069-11.841382zM196.958261 685.478783h630.185121v-477.720979h-630.185121z m168.167949-122.835277a33.033897 33.033897 0 0 1-33.084719-33.033898 33.033897 33.033897 0 0 1 33.084719-33.033897h234.184922a33.033897 33.033897 0 0 1 33.033898 33.033897 33.033897 33.033897 0 0 1-33.033898 33.033898z m-4.573925-192.86714a33.033897 33.033897 0 0 1-33.033897-33.033897 33.033897 33.033897 0 0 1 33.033897-33.033898h303.098715a33.033897 33.033897 0 0 1 33.033898 33.033898 33.033897 33.033897 0 0 1-33.033898 33.033897z" /></svg>