<?xml version="1.0" standalone="no"?><!DOCTYPE svg PUBLIC "-//W3C//DTD SVG 1.1//EN" "http://www.w3.org/Graphics/SVG/1.1/DTD/svg11.dtd"><svg class="icon" width="200px" height="200.00px" viewBox="0 0 1024 1024" version="1.1" xmlns="http://www.w3.org/2000/svg"><path   d="M13.7216 534.0672a472.4736 472.4736 0 0 1 471.9616-471.9616 472.2688 472.2688 0 0 1 137.1136 20.48 33.3312 33.3312 0 0 1 22.1184 41.5232 33.3824 33.3824 0 0 1-41.5232 22.2208 403.456 403.456 0 0 0-117.76-17.408 405.8112 405.8112 0 0 0-405.3504 405.3504 405.76 405.76 0 0 0 405.3504 405.2992 405.76 405.76 0 0 0 405.3504-405.2992 404.48 404.48 0 0 0-22.9376-134.7072 33.3312 33.3312 0 0 1 20.48-42.4448 33.3312 33.3312 0 0 1 42.4448 20.48 469.5552 469.5552 0 0 1 26.6752 156.8768 472.4224 472.4224 0 0 1-471.8592 471.8592 472.4224 472.4224 0 0 1-472.064-472.2688z m220.16 0a251.904 251.904 0 0 1 251.6992-251.6992 249.7536 249.7536 0 0 1 73.1648 10.752 33.28 33.28 0 0 1 22.1184 41.5744 33.28 33.28 0 0 1-41.5232 22.1184 185.5488 185.5488 0 0 0-53.76-7.936 185.344 185.344 0 0 0-185.088 185.1904 185.3952 185.3952 0 0 0 185.088 185.1904 185.3952 185.3952 0 0 0 185.088-185.1904 183.3472 183.3472 0 0 0-10.24-61.44 33.3824 33.3824 0 0 1 20.48-42.4448 33.28 33.28 0 0 1 42.4448 20.48 250.0096 250.0096 0 0 1 14.2336 83.6096 252.0064 252.0064 0 0 1-251.6992 251.6992 251.9552 251.9552 0 0 1-252.0064-251.904z m228.9152 27.0336a33.28 33.28 0 0 1 0-47.104l177.2544-177.152 9.216-113.6128a31.1808 31.1808 0 0 1 9.6768-20.0192l126.0544-117.76a30.72 30.72 0 0 1 19.4048-8.192 30.72 30.72 0 0 1 15.36 3.2768 30.72 30.72 0 0 1 16.6912 30.72l-10.24 90.7776 92.7232-2.6112a30.72 30.72 0 0 1 29.3376 18.944 30.72 30.72 0 0 1-7.4752 34.1504l-126.0544 117.76a30.72 30.72 0 0 1-21.0432 8.2944h-101.5808l-182.3744 182.4256a33.1264 33.1264 0 0 1-23.5008 9.6256 33.1776 33.1776 0 0 1-23.3984-9.472z m246.6816-321.024l-5.12 62.208a31.7952 31.7952 0 0 1 10.24 6.912 33.3312 33.3312 0 0 1 5.9392 8.0384h61.44l57.5488-53.8624-46.4384 1.3824a30.72 30.72 0 0 1-23.5008-9.8304 30.72 30.72 0 0 1-8.0384-24.2688l4.8128-43.52z" /></svg>