<svg xmlns="http://www.w3.org/2000/svg" width="20" height="20" viewBox="0 0 20 20">
  <defs>
    <style>
      .cls-1, .cls-2, .cls-3 {
        fill: none;
      }

      .cls-1 {
        opacity: 0.204;
      }

      .cls-3 {
        stroke: #333;
        stroke-linecap: round;
        stroke-width: 1.3px;
      }

      .cls-4, .cls-5 {
        stroke: none;
      }

      .cls-5 {
        fill: #333;
      }
    </style>
  </defs>
  <g id="icon_caidanguanli" transform="translate(-16 -94)">
    <rect id="矩形_42" data-name="矩形 42" class="cls-1" width="20" height="20" transform="translate(16 94)"/>
    <g id="组_53" data-name="组 53" transform="translate(0.5 0.194)">
      <g id="路径_75" data-name="路径 75" class="cls-2" transform="translate(17 104.806)">
        <path class="cls-4" d="M.964,0H6.536A.982.982,0,0,1,7.5,1V6a.982.982,0,0,1-.964,1H.964A.982.982,0,0,1,0,6V1A.982.982,0,0,1,.964,0Z"/>
        <path class="cls-5" d="M 1.300000190734863 1.300000190734863 L 1.300000190734863 5.699999809265137 L 6.199999809265137 5.699999809265137 L 6.199999809265137 1.300000190734863 L 1.300000190734863 1.300000190734863 M 0.9638199806213379 0 L 6.536180019378662 0 C 7.068480014801025 0 7.5 0.4477200508117676 7.5 1 L 7.5 6 C 7.5 6.552279949188232 7.068480014801025 7 6.536180019378662 7 L 0.9638199806213379 7 C 0.4315199851989746 7 0 6.552279949188232 0 6 L 0 1 C 0 0.4477200508117676 0.4315199851989746 0 0.9638199806213379 0 Z"/>
      </g>
      <g id="路径_76" data-name="路径 76" class="cls-2" transform="translate(17 95.806)">
        <path class="cls-4" d="M.964,0H6.536A.982.982,0,0,1,7.5,1V6a.982.982,0,0,1-.964,1H.964A.982.982,0,0,1,0,6V1A.982.982,0,0,1,.964,0Z"/>
        <path class="cls-5" d="M 1.300000190734863 1.300000190734863 L 1.300000190734863 5.699999809265137 L 6.199999809265137 5.699999809265137 L 6.199999809265137 1.300000190734863 L 1.300000190734863 1.300000190734863 M 0.9638199806213379 0 L 6.536180019378662 0 C 7.068480014801025 0 7.5 0.4477200508117676 7.5 1 L 7.5 6 C 7.5 6.552279949188232 7.068480014801025 7 6.536180019378662 7 L 0.9638199806213379 7 C 0.4315199851989746 7 0 6.552279949188232 0 6 L 0 1 C 0 0.4477200508117676 0.4315199851989746 0 0.9638199806213379 0 Z"/>
      </g>
      <g id="路径_77" data-name="路径 77" class="cls-2" transform="translate(26.5 104.806)">
        <path class="cls-4" d="M.964,0H6.536A.982.982,0,0,1,7.5,1V6a.982.982,0,0,1-.964,1H.964A.982.982,0,0,1,0,6V1A.982.982,0,0,1,.964,0Z"/>
        <path class="cls-5" d="M 1.300000190734863 1.300000190734863 L 1.300000190734863 5.699999809265137 L 6.199999809265137 5.699999809265137 L 6.199999809265137 1.300000190734863 L 1.300000190734863 1.300000190734863 M 0.9638199806213379 0 L 6.536180019378662 0 C 7.068480014801025 0 7.5 0.4477200508117676 7.5 1 L 7.5 6 C 7.5 6.552279949188232 7.068480014801025 7 6.536180019378662 7 L 0.9638199806213379 7 C 0.4315199851989746 7 0 6.552279949188232 0 6 L 0 1 C 0 0.4477200508117676 0.4315199851989746 0 0.9638199806213379 0 Z"/>
      </g>
      <line id="直线_18" data-name="直线 18" class="cls-3" x2="6" transform="translate(27.25 97.609)"/>
      <line id="直线_19" data-name="直线 19" class="cls-3" x2="6" transform="translate(27.25 101.003)"/>
    </g>
  </g>
</svg>
